<svg id="Layer_1" data-name="Layer 1" xmlns="http://www.w3.org/2000/svg" xmlns:xlink="http://www.w3.org/1999/xlink" viewBox="0 0 1920 1080"><defs><style>.cls-1,.cls-4,.cls-5{fill:none;}.cls-2{fill:#7963d2;}.cls-3{opacity:0.7;}.cls-4,.cls-5{stroke:#fff;stroke-linecap:round;stroke-linejoin:round;stroke-width:5px;}.cls-5{stroke-dasharray:59.14 59.14;}.cls-6{fill:#fff;}.cls-7{clip-path:url(#clip-path);}.cls-10,.cls-11,.cls-12,.cls-13,.cls-14,.cls-15,.cls-16,.cls-17,.cls-8,.cls-9{opacity:0.15;}.cls-8{fill:url(#linear-gradient);}.cls-9{fill:url(#linear-gradient-2);}.cls-10{fill:url(#linear-gradient-3);}.cls-11{fill:url(#linear-gradient-4);}.cls-12{fill:url(#linear-gradient-5);}.cls-13{fill:url(#linear-gradient-6);}.cls-14{fill:url(#linear-gradient-7);}.cls-15{fill:url(#linear-gradient-8);}.cls-16{fill:url(#linear-gradient-9);}.cls-17{fill:url(#linear-gradient-10);}</style><clipPath id="clip-path"><rect class="cls-1" width="1920" height="1080"/></clipPath><linearGradient id="linear-gradient" x1="456.74" y1="1168.54" x2="1650.96" y2="-25.68" gradientTransform="translate(506.4 1692.64) rotate(-81.64)" gradientUnits="userSpaceOnUse"><stop offset="0" stop-color="#fff"/><stop offset="1" stop-color="#fff" stop-opacity="0"/></linearGradient><linearGradient id="linear-gradient-2" x1="466.43" y1="1214.07" x2="1660.65" y2="19.85" xlink:href="#linear-gradient"/><linearGradient id="linear-gradient-3" x1="476.12" y1="1259.59" x2="1670.34" y2="65.37" xlink:href="#linear-gradient"/><linearGradient id="linear-gradient-4" x1="485.8" y1="1305.12" x2="1680.03" y2="110.89" xlink:href="#linear-gradient"/><linearGradient id="linear-gradient-5" x1="495.49" y1="1350.64" x2="1689.72" y2="156.42" xlink:href="#linear-gradient"/><linearGradient id="linear-gradient-6" x1="623.34" y1="1479.5" x2="1817.56" y2="285.28" xlink:href="#linear-gradient"/><linearGradient id="linear-gradient-7" x1="633.02" y1="1525.03" x2="1827.25" y2="330.81" xlink:href="#linear-gradient"/><linearGradient id="linear-gradient-8" x1="642.71" y1="1570.55" x2="1836.93" y2="376.33" xlink:href="#linear-gradient"/><linearGradient id="linear-gradient-9" x1="652.4" y1="1616.08" x2="1846.62" y2="421.85" xlink:href="#linear-gradient"/><linearGradient id="linear-gradient-10" x1="662.09" y1="1661.6" x2="1856.31" y2="467.38" xlink:href="#linear-gradient"/></defs><title>Background</title><rect class="cls-2" width="1920" height="1080"/><g class="cls-3"><line class="cls-4" x1="847" y1="1080" x2="866.12" y2="1058.39"/><path class="cls-5" d="M904.42,1013.33c24.07-30,47.37-62.1,71.63-95.52,53.53-73.72,108.88-150,179.3-211.63C1237.12,634.6,1327,594.29,1430.06,583c255.47-28.08,394.68-195,454.92-292.07l4.2-6.76"/><line class="cls-4" x1="1904.78" y1="259.01" x2="1920" y2="234.49"/></g><path class="cls-6" d="M1920,298.33V1080H892.54l6.12-6.91c36.14-40.84,68.76-85.76,103.28-133.32,52.41-72.18,106.6-146.81,174.13-205.95,36.66-32.09,73.86-56.82,113.75-75.6,44.91-21.15,91.87-34.19,143.57-39.87,268.87-29.56,415.46-205.44,478.93-307.64Z"/><g class="cls-7"><path class="cls-8" d="M1593.36,1204.57C1498.12,1144.3,1399.65,1082,1318,1000c-94.64-95.12-151.38-202.66-173.46-328.77-55-314.37-272.95-473.68-398-540.65L674.13,91.72a2,2,0,0,0-1.86,3.48L744.75,134c124.37,66.64,341.2,225.13,395.94,537.86,22.22,126.93,79.31,235.16,174.55,330.87,81.92,82.32,180.59,144.76,276.09,205.19,60.53,38.3,117.71,74.48,169.39,114.65l41.13,32a2,2,0,0,0,2.77-.34,2.06,2.06,0,0,0,.39-.93,2,2,0,0,0-.74-1.84l-41.13-32C1711.31,1279.2,1654.06,1243,1593.36,1204.57Z"/><path class="cls-9" d="M1639.82,1201.61c-95.24-60.27-193.72-122.6-275.34-204.6C1269.84,901.89,1213.1,794.35,1191,668.24c-55-314.37-272.95-473.67-398-540.65L720.58,88.76a2,2,0,1,0-1.86,3.47l72.48,38.84c124.37,66.64,341.2,225.13,395.94,537.85,22.22,126.93,79.31,235.16,174.55,330.87,81.92,82.32,180.6,144.76,276.09,205.2,60.54,38.3,117.72,74.48,169.39,114.64l41.13,31.95a2,2,0,0,0,2.77-.34,2.07,2.07,0,0,0,.39-.92,2,2,0,0,0-.74-1.85l-41.13-32C1757.77,1276.24,1700.51,1240,1639.82,1201.61Z"/><path class="cls-10" d="M1686.26,1198.64C1591,1138.37,1492.55,1076,1410.93,994c-94.64-95.12-151.38-202.66-173.46-328.77-55-314.37-273-473.67-398-540.65L767,85.79a2,2,0,0,0-1.86,3.48l72.48,38.83C962,194.74,1178.85,353.23,1233.59,666c22.21,126.93,79.31,235.16,174.55,330.88,81.92,82.31,180.59,144.75,276.09,205.19,60.53,38.3,117.71,74.47,169.39,114.64l41.13,32a2,2,0,0,0,2.77-.35,2.07,2.07,0,0,0,.39-.92,2,2,0,0,0-.74-1.85l-41.13-32C1804.21,1273.26,1747,1237,1686.26,1198.64Z"/><path class="cls-11" d="M1732.72,1195.67c-95.24-60.27-193.72-122.59-275.34-204.59C1362.74,896,1306,788.41,1283.92,662.3c-55-314.36-273-473.67-398-540.65L813.48,82.82a2,2,0,1,0-1.86,3.48l72.48,38.83C1008.47,191.77,1225.3,350.26,1280,663c22.21,126.94,79.31,235.17,174.55,330.88,81.92,82.32,180.6,144.76,276.09,205.19,60.53,38.3,117.71,74.48,169.39,114.64l41.13,32a2,2,0,0,0,2.77-.35,2,2,0,0,0,.39-.92,2,2,0,0,0-.74-1.85l-41.13-32C1850.66,1270.29,1793.41,1234.07,1732.72,1195.67Z"/><path class="cls-12" d="M857.26,80.66a2,2,0,0,0,.81,2.67l72.48,38.83c124.37,66.64,341.2,225.13,395.94,537.86C1348.7,787,1405.8,895.18,1501,990.89c81.92,82.32,180.59,144.76,276.09,205.19,60.53,38.3,117.7,74.48,169.39,114.65l41.13,32a2,2,0,1,0,2.42-3.11l-41.13-32c-51.84-40.29-109.09-76.51-169.78-114.91-95.23-60.27-193.71-122.59-275.33-204.59-94.65-95.12-151.38-202.67-173.46-328.78-55-314.36-272.95-473.67-398-540.65L859.93,79.85A2,2,0,0,0,857.26,80.66Z"/><path class="cls-13" d="M1925.23,1084.94c-95.23-60.27-193.71-122.59-275.32-204.59-94.65-95.12-151.39-202.66-173.46-328.77-55-314.37-273-473.67-398-540.65L1006-27.9a2,2,0,0,0-2.67.8,2,2,0,0,0,.81,2.67l72.48,38.84c124.38,66.64,341.2,225.12,395.94,537.85,22.22,126.93,79.31,235.16,174.55,330.87,81.92,82.32,180.59,144.76,276.09,205.2,60.53,38.3,117.71,74.47,169.4,114.64l41.12,32a2,2,0,0,0,2.77-.34,1.87,1.87,0,0,0,.39-.92,2,2,0,0,0-.74-1.85l-41.12-32C2043.18,1159.57,1985.93,1123.34,1925.23,1084.94Z"/><path class="cls-14" d="M1971.69,1082c-95.24-60.27-193.72-122.59-275.33-204.6C1601.71,782.26,1545,674.72,1522.9,548.61c-55-314.37-273-473.67-398-540.65l-72.48-38.83a2,2,0,0,0-2.67.8,2,2,0,0,0,.81,2.68l72.48,38.83c124.38,66.64,341.2,225.13,395.94,537.85,22.22,126.93,79.31,235.16,174.55,330.88,81.93,82.31,180.6,144.76,276.09,205.19,60.54,38.3,117.72,74.48,169.4,114.64l41.12,32a2,2,0,0,0,2.42-3.12l-41.12-31.95C2089.64,1156.61,2032.38,1120.38,1971.69,1082Z"/><path class="cls-15" d="M2018.14,1079c-95.24-60.27-193.72-122.59-275.33-204.59-94.65-95.13-151.39-202.67-173.46-328.78-55-314.37-273-473.67-398-540.65L1098.9-33.84a2,2,0,0,0-2.67.81,2,2,0,0,0,.81,2.67l72.48,38.83c124.38,66.64,341.2,225.13,395.94,537.85,22.22,126.93,79.31,235.16,174.55,330.88,81.92,82.31,180.6,144.76,276.09,205.19,60.54,38.3,117.71,74.48,169.4,114.64l41.12,32a2,2,0,0,0,2.77-.35,2,2,0,0,0,.39-.92,2,2,0,0,0-.74-1.85l-41.12-31.95C2136.08,1153.63,2078.83,1117.41,2018.14,1079Z"/><path class="cls-16" d="M2064.6,1076.05c-95.25-60.28-193.73-122.6-275.35-204.6-94.64-95.12-151.38-202.67-173.46-328.78-55-314.36-273-473.67-398-540.65l-72.48-38.83a2,2,0,0,0-2.67.81,2,2,0,0,0,.81,2.67L1216,5.5c124.38,66.64,341.2,225.13,395.94,537.86,22.22,126.93,79.31,235.16,174.55,330.87,81.93,82.32,180.6,144.76,276.09,205.19,60.54,38.3,117.71,74.48,169.4,114.65l41.12,32a2,2,0,1,0,2.42-3.11l-41.12-32C2182.53,1150.67,2125.28,1114.44,2064.6,1076.05Z"/><path class="cls-17" d="M1189.13-39a2,2,0,0,0,.81,2.67l72.48,38.83c124.38,66.64,341.2,225.14,395.94,537.86,22.21,126.93,79.31,235.16,174.55,330.87C1914.83,953.58,2013.5,1016,2109,1076.45c60.53,38.3,117.71,74.48,169.39,114.65l41.13,32a2,2,0,0,0,2.77-.34,2.06,2.06,0,0,0,.39-.93,2,2,0,0,0-.74-1.84l-41.13-32c-51.83-40.28-109.08-76.51-169.77-114.91-95.24-60.27-193.72-122.59-275.34-204.59-94.64-95.12-151.38-202.66-173.46-328.77-55-314.37-273-473.67-398-540.66L1191.8-39.78A2,2,0,0,0,1189.13-39Z"/></g></svg>