<svg id="Layer_1" data-name="Layer 1" xmlns="http://www.w3.org/2000/svg" xmlns:xlink="http://www.w3.org/1999/xlink" viewBox="0 0 1080 1920"><defs><style>.cls-1,.cls-15,.cls-16{fill:none;}.cls-2{fill:#7963d2;}.cls-3{clip-path:url(#clip-path);}.cls-10,.cls-11,.cls-12,.cls-13,.cls-19,.cls-20,.cls-21,.cls-4,.cls-5,.cls-6,.cls-7,.cls-8,.cls-9{opacity:0.15;}.cls-4{fill:url(#linear-gradient);}.cls-5{fill:url(#linear-gradient-2);}.cls-6{fill:url(#linear-gradient-3);}.cls-7{fill:url(#linear-gradient-4);}.cls-8{fill:url(#linear-gradient-5);}.cls-9{fill:url(#linear-gradient-6);}.cls-10{fill:url(#linear-gradient-7);}.cls-11{fill:url(#linear-gradient-8);}.cls-12{fill:url(#linear-gradient-9);}.cls-13{fill:url(#linear-gradient-10);}.cls-14{opacity:0.7;}.cls-15,.cls-16{stroke:#fff;stroke-linecap:round;stroke-linejoin:round;stroke-width:5.04px;}.cls-15{stroke-dasharray:62.49 62.49;}.cls-17{fill:#fff;}.cls-18{clip-path:url(#clip-path-3);}.cls-19{fill:url(#linear-gradient-11);}.cls-20{fill:url(#linear-gradient-12);}.cls-21{fill:url(#linear-gradient-13);}</style><clipPath id="clip-path"><rect class="cls-1" width="1080" height="1920"/></clipPath><linearGradient id="linear-gradient" x1="-2646.88" y1="5271.9" x2="-1407.99" y2="4033.01" gradientTransform="translate(-4281.85 -639.69) rotate(-90)" gradientUnits="userSpaceOnUse"><stop offset="0" stop-color="#fff"/><stop offset="1" stop-color="#fff" stop-opacity="0"/></linearGradient><linearGradient id="linear-gradient-2" x1="-2636.83" y1="5319.13" x2="-1397.94" y2="4080.24" xlink:href="#linear-gradient"/><linearGradient id="linear-gradient-3" x1="-2626.78" y1="5366.36" x2="-1387.89" y2="4127.47" xlink:href="#linear-gradient"/><linearGradient id="linear-gradient-4" x1="-2616.73" y1="5413.58" x2="-1377.84" y2="4174.69" xlink:href="#linear-gradient"/><linearGradient id="linear-gradient-5" x1="-2606.68" y1="5460.81" x2="-1367.79" y2="4221.92" xlink:href="#linear-gradient"/><linearGradient id="linear-gradient-6" x1="-2474.05" y1="5594.49" x2="-1235.17" y2="4355.6" xlink:href="#linear-gradient"/><linearGradient id="linear-gradient-7" x1="-2464" y1="5641.72" x2="-1225.12" y2="4402.83" xlink:href="#linear-gradient"/><linearGradient id="linear-gradient-8" x1="-2453.95" y1="5688.95" x2="-1215.07" y2="4450.06" xlink:href="#linear-gradient"/><linearGradient id="linear-gradient-9" x1="-2443.9" y1="5736.17" x2="-1205.02" y2="4497.28" xlink:href="#linear-gradient"/><linearGradient id="linear-gradient-10" x1="-2433.85" y1="5783.4" x2="-1194.97" y2="4544.51" xlink:href="#linear-gradient"/><clipPath id="clip-path-3"><rect class="cls-1" x="-1471.85" y="0.5" width="1080" height="1920"/></clipPath><linearGradient id="linear-gradient-11" x1="-2454.45" y1="4217.1" x2="-1215.57" y2="2978.21" xlink:href="#linear-gradient"/><linearGradient id="linear-gradient-12" x1="-2444.4" y1="4264.32" x2="-1205.52" y2="3025.44" xlink:href="#linear-gradient"/><linearGradient id="linear-gradient-13" x1="-2434.36" y1="4311.55" x2="-1195.47" y2="3072.66" xlink:href="#linear-gradient"/></defs><title>Phone Background</title><rect class="cls-2" width="1080" height="1920"/><g class="cls-3"><path class="cls-4" d="M819.84,1816.16c-106.84-47.5-217.31-96.61-313.44-168.47-111.49-83.36-185.94-185.18-227.61-311.29-103.88-314.37-351.58-445-490-494.91l-80.25-28.93a2.05,2.05,0,0,0-2.62,1.23,2,2,0,0,0,1.23,2.62l80.25,28.93C-74.87,895,171.57,1025,274.91,1337.68c41.94,126.93,116.86,229.41,229,313.29,96.5,72.13,207.19,121.34,314.32,169,67.9,30.19,132,58.69,191.15,92.13l47,26.6a2,2,0,0,0,2-3.57l-47-26.59C952.15,1875,887.93,1846.43,819.84,1816.16Z"/><path class="cls-5" d="M867.08,1806.12c-106.84-47.5-217.32-96.62-313.45-168.48C442.14,1554.28,367.69,1452.46,326,1326.35,222.14,1012-25.56,881.33-164,831.44l-80.25-28.93a2,2,0,0,0-2.62,1.23,2,2,0,0,0,1.23,2.62l80.25,28.93c137.7,49.64,384.15,179.62,487.48,492.34,41.95,126.93,116.87,229.41,229,313.29,96.5,72.13,207.19,121.34,314.32,169,67.91,30.19,132,58.7,191.14,92.13l47,26.6a2.05,2.05,0,0,0,2-3.57l-47-26.59C999.39,1864.93,935.16,1836.38,867.08,1806.12Z"/><path class="cls-6" d="M914.3,1796.06c-106.84-47.5-217.31-96.61-313.44-168.47-111.49-83.36-185.94-185.19-227.61-311.29-103.88-314.37-351.58-445-490-494.91L-197,792.46a2,2,0,0,0-2.62,1.23,2,2,0,0,0,1.23,2.62l80.25,28.93C19.58,874.88,266,1004.86,369.36,1317.58c41.94,126.93,116.86,229.41,229,313.29,96.49,72.13,207.18,121.34,314.32,169,67.9,30.19,132,58.7,191.14,92.13l47,26.6a2.05,2.05,0,0,0,2.79-.78,2,2,0,0,0,.26-1,2,2,0,0,0-1-1.79l-47-26.59C1046.61,1854.88,982.39,1826.33,914.3,1796.06Z"/><path class="cls-7" d="M961.54,1786c-106.84-47.5-217.32-96.62-313.46-168.48-111.48-83.36-185.93-185.18-227.61-311.29-103.87-314.37-351.57-445-490-494.91l-80.25-28.93a2.06,2.06,0,0,0-2.62,1.23,2,2,0,0,0,1.24,2.62l80.24,28.93c137.71,49.64,384.15,179.62,487.49,492.34,41.94,126.93,116.86,229.41,229,313.29,96.5,72.13,207.2,121.35,314.32,169,67.91,30.19,132,58.7,191.15,92.13l47,26.6a2.05,2.05,0,0,0,2.79-.78,2,2,0,0,0,.26-1,2,2,0,0,0-1-1.79l-47-26.59C1093.84,1844.83,1029.61,1816.28,961.54,1786Z"/><path class="cls-8" d="M-105.15,773.59a2.05,2.05,0,0,0,1.23,2.62l80.25,28.93C114,854.78,360.48,984.76,463.81,1297.48c41.95,126.93,116.87,229.41,229.05,313.29,96.5,72.13,207.19,121.34,314.32,169,67.9,30.19,132,58.69,191.15,92.13l47,26.6a2,2,0,0,0,2-3.57l-47-26.59c-59.28-33.54-123.5-62.08-191.58-92.35-106.84-47.49-217.32-96.61-313.45-168.47C583.82,1524.13,509.37,1422.3,467.7,1296.2c-103.88-314.37-351.58-445-490-494.91l-80.25-28.93A2.06,2.06,0,0,0-105.15,773.59Z"/><path class="cls-9" d="M1142.43,1643.34c-106.84-47.5-217.31-96.62-313.44-168.48-111.48-83.36-185.94-185.18-227.61-311.29-103.88-314.36-351.58-445-490-494.91L31.15,639.73a2.05,2.05,0,0,0-1.39,3.86L110,672.51c137.71,49.65,384.15,179.62,487.49,492.35,41.94,126.93,116.86,229.4,229,313.28,96.5,72.14,207.19,121.35,314.32,169,67.9,30.18,132,58.69,191.15,92.12l47,26.6a2,2,0,0,0,2.78-.77,2.07,2.07,0,0,0,.27-1,2,2,0,0,0-1-1.78l-47-26.6C1274.74,1702.15,1210.52,1673.6,1142.43,1643.34Z"/><path class="cls-10" d="M1189.67,1633.29c-106.84-47.5-217.32-96.62-313.45-168.48-111.49-83.36-185.94-185.18-227.61-311.29-103.88-314.36-351.58-445-490-494.91L78.38,629.68A2.05,2.05,0,0,0,77,633.54l80.25,28.92c137.7,49.65,384.15,179.63,487.48,492.35,41.95,126.93,116.87,229.4,229,313.28,96.5,72.14,207.19,121.35,314.32,169,67.91,30.18,132.05,58.69,191.14,92.12l47,26.6a2,2,0,0,0,2.79-.77,2,2,0,0,0-.77-2.79l-47-26.6C1322,1692.1,1257.75,1663.55,1189.67,1633.29Z"/><path class="cls-11" d="M1236.89,1623.24c-106.84-47.5-217.31-96.62-313.44-168.48C812,1371.4,737.51,1269.58,695.84,1143.47c-103.88-314.36-351.58-445-490-494.91l-80.24-28.93a2.05,2.05,0,0,0-1.39,3.86l80.25,28.92C342.17,702.06,588.61,832,692,1144.76c41.94,126.93,116.86,229.4,229,313.28,96.49,72.14,207.18,121.35,314.32,169,67.9,30.18,132,58.69,191.14,92.12l47,26.6a2,2,0,0,0,2-3.56l-47-26.6C1369.2,1682.05,1305,1653.5,1236.89,1623.24Z"/><path class="cls-12" d="M1284.13,1613.19c-106.84-47.5-217.32-96.62-313.46-168.48-111.48-83.36-185.93-185.18-227.61-311.29-103.87-314.36-351.57-445-490-494.91l-80.25-28.93a2,2,0,1,0-1.38,3.85l80.24,28.93C389.4,692,635.84,822,739.18,1134.71c41.94,126.93,116.86,229.4,229,313.28,96.5,72.14,207.2,121.35,314.32,169,67.91,30.18,132,58.69,191.15,92.12l47,26.6a2,2,0,1,0,2-3.56l-47-26.6C1416.43,1672,1352.2,1643.45,1284.13,1613.19Z"/><path class="cls-13" d="M217.44,600.77a2.06,2.06,0,0,0,1.23,2.62l80.25,28.92C436.63,682,683.07,811.94,786.4,1124.66c42,126.93,116.87,229.4,229.05,313.28,96.5,72.14,207.19,121.35,314.32,169,67.9,30.18,132,58.69,191.15,92.12l47,26.6a2,2,0,1,0,2-3.56l-47-26.6c-59.28-33.53-123.5-62.08-191.58-92.34-106.84-47.5-217.32-96.62-313.45-168.48C906.41,1351.3,832,1249.48,790.29,1123.37c-103.88-314.36-351.58-445-490-494.91l-80.25-28.93A2.05,2.05,0,0,0,217.44,600.77Z"/></g><g class="cls-3"><g class="cls-14"><path class="cls-15" d="M6.85,2033.55c25.44-31.72,50.06-65.62,75.7-100.93,56.56-77.9,115-158.46,189.46-223.63,86.4-75.64,181.35-118.23,290.28-130.2,270-29.68,417.05-206.11,480.71-308.63l4.43-7.14"/><line class="cls-16" x1="1063.91" y1="1236.47" x2="1080" y2="1210.56"/></g><path class="cls-17" d="M1080,1278v826H-5.7l6.47-7.3c38.18-43.16,72.65-90.62,109.14-140.88,55.38-76.27,112.63-155.13,184-217.62,38.73-33.91,78-60,120.19-79.89,47.46-22.35,97.07-36.13,151.71-42.13,284.1-31.23,439-217.08,506.07-325.08Z"/></g><g class="cls-18"><path class="cls-19" d="M-235,1623.74c-106.84-47.5-217.31-96.62-313.44-168.48C-659.89,1371.9-734.34,1270.08-776,1144c-103.88-314.36-351.58-445-490-494.91l-80.24-28.93a2,2,0,0,0-2.62,1.24,2,2,0,0,0,1.23,2.62l80.25,28.92c137.7,49.65,384.15,179.62,487.48,492.35,41.94,126.93,116.87,229.4,229,313.28,96.5,72.14,207.19,121.35,314.32,169,67.9,30.18,132,58.69,191.14,92.12l47,26.6a2,2,0,1,0,2-3.56l-47-26.6C-102.65,1682.55-166.87,1654-235,1623.74Z"/><path class="cls-20" d="M-187.72,1613.69c-106.84-47.5-217.32-96.62-313.46-168.48-111.48-83.36-185.93-185.18-227.61-311.29-103.87-314.36-351.57-445-490-494.91L-1299,610.08a2,2,0,0,0-2.61,1.24,2,2,0,0,0,1.23,2.61l80.24,28.93c137.71,49.65,384.15,179.63,487.49,492.35,41.94,126.93,116.86,229.4,229,313.28,96.51,72.14,207.2,121.35,314.32,169,67.91,30.18,132.05,58.69,191.15,92.12l47,26.6a2,2,0,1,0,2-3.56l-47-26.6C-55.42,1672.5-119.65,1644-187.72,1613.69Z"/><path class="cls-21" d="M-1254.41,601.27a2.06,2.06,0,0,0,1.23,2.62l80.25,28.92c137.71,49.65,384.15,179.63,487.49,492.35,41.94,126.93,116.86,229.4,229,313.28,96.5,72.14,207.19,121.35,314.32,169,67.9,30.18,132,58.69,191.15,92.12l47,26.6a2,2,0,1,0,2-3.56l-47-26.6c-59.28-33.53-123.5-62.08-191.58-92.34-106.84-47.5-217.32-96.62-313.45-168.48C-565.43,1351.8-639.89,1250-681.56,1123.87c-103.88-314.36-351.57-445-490-494.91L-1251.79,600A2.05,2.05,0,0,0-1254.41,601.27Z"/></g></svg>