<svg xmlns="http://www.w3.org/2000/svg" xmlns:xlink="http://www.w3.org/1999/xlink" id="Layer_1" data-name="Layer 1" viewBox="0 0 1080 2102">
  <defs/>
  <defs>
    <linearGradient id="linear-gradient" x1="-2365.13" x2="-1126.24" y1="4989.65" y2="3750.76" gradientTransform="rotate(-90 -2179.02 1820.58)" gradientUnits="userSpaceOnUse">
      <stop offset="0" stop-color="#fff"/>
      <stop offset="1" stop-color="#fff" stop-opacity="0"/>
    </linearGradient>
    <linearGradient id="linear-gradient-2" x1="-2355.08" x2="-1116.19" y1="5036.88" y2="3797.99" xlink:href="#linear-gradient"/>
    <linearGradient id="linear-gradient-3" x1="-2345.03" x2="-1106.14" y1="5084.1" y2="3845.22" xlink:href="#linear-gradient"/>
    <linearGradient id="linear-gradient-4" x1="-2334.98" x2="-1096.09" y1="5131.33" y2="3892.44" xlink:href="#linear-gradient"/>
    <linearGradient id="linear-gradient-5" x1="-2324.93" x2="-1086.04" y1="5178.56" y2="3939.67" xlink:href="#linear-gradient"/>
    <linearGradient id="linear-gradient-6" x1="-2192.3" x2="-953.42" y1="5312.24" y2="4073.35" xlink:href="#linear-gradient"/>
    <linearGradient id="linear-gradient-7" x1="-2182.25" x2="-943.37" y1="5359.47" y2="4120.58" xlink:href="#linear-gradient"/>
    <linearGradient id="linear-gradient-8" x1="-2172.2" x2="-933.32" y1="5406.7" y2="4167.81" xlink:href="#linear-gradient"/>
    <linearGradient id="linear-gradient-9" x1="-2162.15" x2="-923.27" y1="5453.92" y2="4215.03" xlink:href="#linear-gradient"/>
    <linearGradient id="linear-gradient-10" x1="-2152.1" x2="-913.22" y1="5501.15" y2="4262.26" xlink:href="#linear-gradient"/>
    <linearGradient id="linear-gradient-11" x1="-2335.48" x2="-1096.59" y1="3941.23" y2="2702.35" xlink:href="#linear-gradient"/>
    <linearGradient id="linear-gradient-12" x1="-2325.43" x2="-1086.54" y1="3988.46" y2="2749.57" xlink:href="#linear-gradient"/>
    <linearGradient id="linear-gradient-13" x1="-2192.81" x2="-953.92" y1="4122.14" y2="2883.25" xlink:href="#linear-gradient"/>
    <linearGradient id="linear-gradient-14" x1="-2182.75" x2="-943.87" y1="4169.37" y2="2930.48" xlink:href="#linear-gradient"/>
    <linearGradient id="linear-gradient-15" x1="-2172.7" x2="-933.82" y1="4216.6" y2="2977.71" xlink:href="#linear-gradient"/>
    <linearGradient id="linear-gradient-16" x1="-2162.65" x2="-923.77" y1="4263.82" y2="3024.94" xlink:href="#linear-gradient"/>
    <linearGradient id="linear-gradient-17" x1="-2152.61" x2="-913.72" y1="4311.05" y2="3072.16" xlink:href="#linear-gradient"/>
    <clipPath id="clip-path">
      <path d="M0-.5h1080v1920H0z" class="cls-1"/>
    </clipPath>
    <clipPath id="clip-path-2">
      <path d="M-1190.1 0h1080v1920h-1080z" class="cls-1"/>
    </clipPath>
    <clipPath id="clip-path-3">
      <path d="M0-.5h1080V2102H0z" class="cls-1"/>
    </clipPath>
  </defs>
  <path fill="#7963d2" d="M0-.5h1080V2102H0z"/>
  <g clip-path="url(#clip-path)">
    <path fill="url(#linear-gradient)" d="M819.84 1815.66c-106.84-47.5-217.31-96.61-313.44-168.47-111.49-83.36-185.94-185.19-227.61-311.29-103.88-314.37-351.58-445-490-494.91l-80.25-28.93a2.05 2.05 0 00-2.62 1.23 2 2 0 001.23 2.62l80.25 28.93c137.71 49.64 384.15 179.62 487.48 492.34 42 126.93 116.87 229.41 229.05 313.29 96.5 72.13 207.19 121.34 314.32 169 67.9 30.19 132 58.69 191.15 92.13l47 26.6a2 2 0 002-3.57l-47-26.59c-59.25-33.57-123.47-62.11-191.56-92.38z" opacity=".15"/>
    <path fill="url(#linear-gradient-2)" d="M867.08 1805.62c-106.84-47.5-217.32-96.62-313.45-168.48C442.14 1553.78 367.69 1452 326 1325.85c-103.88-314.37-351.58-445-490-494.91L-244.21 802a2 2 0 00-2.62 1.23 2 2 0 001.23 2.62l80.25 28.93c137.7 49.64 384.15 179.62 487.48 492.34 41.95 126.93 116.87 229.41 229 313.29 96.5 72.13 207.19 121.34 314.32 169 67.91 30.19 132 58.7 191.14 92.13l47 26.6a2.05 2.05 0 002-3.57l-47-26.59c-59.2-33.55-123.43-62.1-191.51-92.36z" opacity=".15"/>
    <path fill="url(#linear-gradient-3)" d="M914.3 1795.56c-106.84-47.5-217.3-96.56-313.44-168.47-111.49-83.36-185.94-185.19-227.61-311.29-103.88-314.37-351.58-445-490-494.91L-197 792a2 2 0 00-2.62 1.23 2 2 0 001.23 2.62l80.25 28.93c137.72 49.6 384.14 179.58 487.5 492.3 41.94 126.93 116.86 229.41 229 313.29 96.49 72.13 207.18 121.34 314.32 169 67.9 30.19 132 58.7 191.14 92.13l47 26.6a2.05 2.05 0 002.79-.78 2 2 0 00.26-1 2 2 0 00-1-1.79l-47-26.59c-59.26-33.56-123.48-62.11-191.57-92.38z" opacity=".15"/>
    <path fill="url(#linear-gradient-4)" d="M961.54 1785.52C854.7 1738 744.22 1688.9 648.08 1617c-111.48-83.36-185.93-185.18-227.61-311.29-103.88-314.37-351.57-445-490-494.91l-80.25-28.93a2.06 2.06 0 00-2.62 1.23 2 2 0 001.24 2.62l80.24 28.93C66.81 864.33 313.25 994.31 416.59 1307c41.94 126.93 116.86 229.41 229 313.29 96.5 72.13 207.2 121.35 314.32 169 67.91 30.19 132 58.7 191.15 92.13l47 26.6a2.05 2.05 0 002.79-.78 2 2 0 00.26-1 2 2 0 00-1-1.79l-47-26.59c-59.27-33.53-123.5-62.08-191.57-92.34z" opacity=".15"/>
    <path fill="url(#linear-gradient-5)" d="M-105.15 773.09a2.05 2.05 0 001.23 2.62l80.25 28.93C114 854.28 360.48 984.26 463.81 1297c41.95 126.93 116.87 229.41 229.05 313.29 96.5 72.13 207.19 121.34 314.32 169 67.9 30.19 132 58.69 191.15 92.13l47 26.6a2 2 0 002-3.57l-47-26.59c-59.28-33.54-123.5-62.08-191.58-92.35C901.92 1728 791.44 1678.85 695.31 1607c-111.49-83.37-185.94-185.2-227.61-311.3-103.88-314.37-351.58-445-490-494.91l-80.25-28.93a2.06 2.06 0 00-2.6 1.23z" opacity=".15"/>
    <path fill="url(#linear-gradient-6)" d="M1142.43 1642.84c-106.84-47.5-217.31-96.62-313.44-168.48-111.49-83.36-185.94-185.18-227.61-311.29-103.88-314.36-351.58-445-490-494.91l-80.23-28.93a2.05 2.05 0 00-1.39 3.86L110 672c137.71 49.65 384.15 179.62 487.49 492.35 41.94 126.93 116.86 229.4 229 313.28 96.5 72.13 207.19 121.35 314.32 169 67.9 30.18 132 58.69 191.15 92.12l47 26.6a2 2 0 002.78-.77 2.07 2.07 0 00.27-1 2 2 0 00-1-1.78l-47-26.6c-59.27-33.55-123.49-62.1-191.58-92.36z" opacity=".15"/>
    <path fill="url(#linear-gradient-7)" d="M1189.67 1632.79c-106.84-47.5-217.32-96.62-313.45-168.48C764.73 1381 690.28 1279.13 648.61 1153 544.73 838.66 297 708 158.63 658.11l-80.25-28.93A2.05 2.05 0 0077 633l80.24 29c137.7 49.65 384.15 179.63 487.48 492.35 41.95 126.93 116.87 229.4 229 313.28 96.5 72.14 207.19 121.35 314.32 169 67.91 30.18 132.05 58.69 191.14 92.12l47 26.6a2 2 0 002.79-.77 2 2 0 00-.77-2.79l-47-26.6c-59.2-33.59-123.45-62.14-191.53-92.4z" opacity=".15"/>
    <path fill="url(#linear-gradient-8)" d="M1236.89 1622.74c-106.84-47.5-217.31-96.62-313.44-168.48C812 1370.9 737.51 1269.08 695.84 1143 592 828.61 344.26 698 205.85 648.06l-80.24-28.93a2.05 2.05 0 00-1.39 3.86l80.25 28.92c137.7 49.65 384.14 179.62 487.53 492.35 41.94 126.93 116.86 229.4 229 313.28 96.49 72.14 207.18 121.35 314.32 169 67.9 30.18 132 58.69 191.14 92.12l47 26.6a2 2 0 002-3.56l-47-26.6c-59.26-33.55-123.46-62.1-191.57-92.36z" opacity=".15"/>
    <path fill="url(#linear-gradient-9)" d="M1284.13 1612.69c-106.84-47.5-217.32-96.62-313.46-168.48-111.48-83.36-185.93-185.21-227.61-311.29-103.87-314.36-351.57-445-490-494.91l-80.25-28.93a2 2 0 10-1.38 3.85l80.24 28.93c137.71 49.65 384.15 179.63 487.49 492.35 41.94 126.93 116.86 229.4 229 313.28 96.5 72.14 207.2 121.35 314.32 169 67.91 30.18 132 58.69 191.15 92.12l47 26.6a2 2 0 102-3.56l-47-26.6c-59.2-33.55-123.43-62.05-191.5-92.36z" opacity=".15"/>
    <path fill="url(#linear-gradient-10)" d="M217.44 600.27a2.06 2.06 0 001.23 2.62l80.25 28.92c137.71 49.65 384.15 179.63 487.48 492.35 42 126.93 116.87 229.4 229.05 313.28 96.5 72.14 207.19 121.35 314.32 169 67.9 30.18 132 58.69 191.15 92.12l47 26.6a2 2 0 002.79-.77 2.17 2.17 0 00.26-1 2 2 0 00-1-1.78l-47-26.6c-59.28-33.53-123.5-62.08-191.58-92.34-106.84-47.5-217.32-96.62-313.45-168.48C906.41 1350.8 832 1249 790.29 1122.87c-103.88-314.36-351.58-445-490-494.91L220.06 599a2.05 2.05 0 00-2.62 1.27z" opacity=".15"/>
  </g>
  <g clip-path="url(#clip-path-2)">
    <path fill="url(#linear-gradient-11)" d="M-228.56 1786c-106.84-47.5-217.32-96.62-313.46-168.48-111.48-83.36-185.93-185.18-227.61-311.29-103.87-314.37-351.57-445-490-494.91l-80.25-28.93a2 2 0 00-2.61 1.23 2 2 0 001.23 2.62l80.24 28.93c137.71 49.64 384.15 179.62 487.49 492.34 41.94 126.93 116.86 229.41 229 313.29 96.51 72.13 207.2 121.35 314.32 169 67.97 30.2 132.11 58.69 191.21 92.12l47 26.6a2.05 2.05 0 002.79-.78 2 2 0 00.26-1 2 2 0 00-1-1.79l-47-26.59c-59.31-33.53-123.54-62.08-191.61-92.36z" opacity=".15"/>
    <path fill="url(#linear-gradient-12)" d="M-1295.25 773.59a2.05 2.05 0 001.23 2.62l80.25 28.93c137.71 49.64 384.15 179.62 487.49 492.34 41.94 126.93 116.86 229.41 229 313.29 96.5 72.13 207.19 121.34 314.32 169 67.9 30.19 132 58.69 191.15 92.13l47 26.6a2.05 2.05 0 002.79-.78 2 2 0 00.26-1 2 2 0 00-1-1.79l-47-26.59c-59.28-33.54-123.5-62.08-191.58-92.35-106.84-47.49-217.32-96.61-313.45-168.47-111.49-83.36-185.94-185.19-227.61-311.29-103.88-314.37-351.58-445-490-494.91l-80.25-28.93a2.06 2.06 0 00-2.6 1.2z" opacity=".15"/>
    <path fill="url(#linear-gradient-13)" d="M-47.67 1643.34c-106.83-47.5-217.31-96.62-313.44-168.48-111.48-83.36-185.89-185.18-227.61-311.29-103.88-314.36-351.58-445-490-494.91l-80.25-28.93a2.05 2.05 0 00-2.62 1.24 2.06 2.06 0 001.23 2.62l80.25 28.92c137.71 49.65 384.15 179.62 487.49 492.35 41.94 126.93 116.86 229.4 229 313.28 96.5 72.13 207.19 121.35 314.32 169 67.9 30.18 132 58.69 191.15 92.12l47 26.6a2 2 0 102-3.56l-47-26.6c-59.21-33.55-123.43-62.1-191.52-92.36z" opacity=".15"/>
    <path fill="url(#linear-gradient-14)" d="M-.43 1633.29c-106.84-47.5-217.32-96.62-313.45-168.48-111.49-83.36-185.94-185.18-227.61-311.29-103.88-314.36-351.58-445-490-494.91l-80.25-28.93a2.05 2.05 0 00-2.62 1.23 2 2 0 001.23 2.62l80.25 28.93c137.7 49.65 384.15 179.63 487.48 492.35 41.95 126.93 116.87 229.4 229.05 313.28 96.5 72.14 207.19 121.35 314.32 169 67.91 30.18 132 58.69 191.15 92.12l47 26.6a2 2 0 002.88-.81 2 2 0 00-.77-2.79l-47-26.6c-59.35-33.51-123.58-62.06-191.66-92.32z" opacity=".15"/>
    <path fill="url(#linear-gradient-15)" d="M46.79 1623.24c-106.84-47.5-217.31-96.62-313.44-168.48-111.49-83.36-185.94-185.18-227.61-311.29-103.88-314.36-351.58-445-490-494.91l-80.24-28.93a2 2 0 00-2.62 1.24 2 2 0 001.23 2.62l80.25 28.92c137.7 49.65 384.15 179.62 487.48 492.35 41.94 126.93 116.87 229.4 229 313.28 96.5 72.14 207.19 121.35 314.32 169 67.9 30.18 132 58.69 191.14 92.12l47 26.6a2 2 0 102-3.56l-47-26.6c-59.2-33.55-123.42-62.1-191.51-92.36z" opacity=".15"/>
    <path fill="url(#linear-gradient-16)" d="M94 1613.19c-106.84-47.5-217.32-96.62-313.45-168.48-111.49-83.36-185.94-185.18-227.62-311.29-103.87-314.36-351.57-445-490-494.91l-80.25-28.93a2 2 0 00-2.61 1.24 2 2 0 001.23 2.61l80.24 28.93C-800.7 692-554.26 822-450.92 1134.71c41.94 126.93 116.86 229.4 229 313.28 96.51 72.14 207.2 121.35 314.32 169 67.91 30.18 132.05 58.69 191.15 92.12l47 26.6a2 2 0 102-3.56l-47-26.6C226.33 1672 162.1 1643.45 94 1613.19z" opacity=".15"/>
    <path fill="url(#linear-gradient-17)" d="M-972.66 600.77a2.06 2.06 0 001.23 2.62l80.25 28.92C-753.47 682-507 811.94-403.69 1124.66c41.94 126.93 116.86 229.4 229 313.28 96.5 72.14 207.19 121.35 314.32 169 67.9 30.18 132 58.69 191.15 92.12l47 26.6a2 2 0 102-3.56l-47-26.6c-59.28-33.53-123.5-62.08-191.58-92.34-106.84-47.5-217.32-96.62-313.45-168.48-111.48-83.36-185.94-185.18-227.61-311.29-103.88-314.36-351.57-445-490-494.91L-970 599.53a2.05 2.05 0 00-2.66 1.24z" opacity=".15"/>
  </g>
  <g clip-path="url(#clip-path-3)">
    <g fill="none" stroke="#fff" stroke-linecap="round" stroke-linejoin="round" stroke-width="5.04" opacity=".7">
      <path stroke-dasharray="62.49 62.49" d="M6.85 2033.05c25.44-31.72 50.06-65.62 75.7-100.93 56.56-77.9 115-158.46 189.46-223.63 86.4-75.64 181.35-118.23 290.28-130.2 270-29.68 417.05-206.11 480.71-308.63l4.43-7.14"/>
      <path d="M1063.91 1235.97l16.09-25.91"/>
    </g>
    <path fill="#fff" d="M1080 1277.52v826H-5.7l6.47-7.3c38.23-43.22 72.65-90.64 109.14-140.9 55.37-76.27 112.63-155.13 184-217.62 38.73-33.91 78-60 120.19-79.89 47.46-22.35 97.07-36.13 151.71-42.13 284.1-31.23 439-217.08 506.07-325.08z"/>
  </g>
</svg>
