<svg xmlns="http://www.w3.org/2000/svg" xmlns:xlink="http://www.w3.org/1999/xlink" id="Layer_1" data-name="Layer 1" viewBox="0 0 1920 1776.01">
  <defs/>
  <defs>
    <linearGradient id="linear-gradient" x1="-4104.88" x2="-2910.66" y1="6449.27" y2="5255.05" gradientTransform="rotate(-81.64 -4104.55919482 553.31176301)" gradientUnits="userSpaceOnUse">
      <stop offset="0" stop-color="#fff"/>
      <stop offset="1" stop-color="#fff" stop-opacity="0"/>
    </linearGradient>
    <linearGradient id="linear-gradient-2" x1="-4095.2" x2="-2900.97" y1="6494.79" y2="5300.57" xlink:href="#linear-gradient"/>
    <linearGradient id="linear-gradient-3" x1="-4085.51" x2="-2891.28" y1="6540.32" y2="5346.1" xlink:href="#linear-gradient"/>
    <linearGradient id="linear-gradient-4" x1="-4075.82" x2="-2881.6" y1="6585.84" y2="5391.62" xlink:href="#linear-gradient"/>
    <linearGradient id="linear-gradient-5" x1="-4066.13" x2="-2871.91" y1="6631.37" y2="5437.15" xlink:href="#linear-gradient"/>
    <linearGradient id="linear-gradient-6" x1="-3938.29" x2="-2744.07" y1="6760.23" y2="5566.01" xlink:href="#linear-gradient"/>
    <linearGradient id="linear-gradient-7" x1="-3928.6" x2="-2734.38" y1="6805.75" y2="5611.53" xlink:href="#linear-gradient"/>
    <linearGradient id="linear-gradient-8" x1="-3918.91" x2="-2724.69" y1="6851.28" y2="5657.06" xlink:href="#linear-gradient"/>
    <linearGradient id="linear-gradient-9" x1="-3909.22" x2="-2715" y1="6896.8" y2="5702.58" xlink:href="#linear-gradient"/>
    <linearGradient id="linear-gradient-10" x1="-3899.54" x2="-2705.31" y1="6942.33" y2="5748.11" xlink:href="#linear-gradient"/>
    <linearGradient id="linear-gradient-11" x1="-4236.08" x2="-3041.85" y1="4733.19" y2="3538.97" xlink:href="#linear-gradient"/>
    <linearGradient id="linear-gradient-12" x1="-4226.39" x2="-3032.17" y1="4778.72" y2="3584.5" xlink:href="#linear-gradient"/>
    <linearGradient id="linear-gradient-13" x1="-4216.7" x2="-3022.48" y1="4824.24" y2="3630.02" xlink:href="#linear-gradient"/>
    <linearGradient id="linear-gradient-14" x1="-4207.01" x2="-3012.79" y1="4869.77" y2="3675.55" xlink:href="#linear-gradient"/>
    <linearGradient id="linear-gradient-15" x1="-4197.33" x2="-3003.1" y1="4915.29" y2="3721.07" xlink:href="#linear-gradient"/>
    <clipPath id="clip-path">
      <path d="M0 0h1920v1080H0z" class="cls-1"/>
    </clipPath>
    <clipPath id="clip-path-2">
      <path d="M-2048.79 0h1920v1080h-1920z" class="cls-1"/>
    </clipPath>
  </defs>
  <path fill="#7963d2" d="M0 0h1920v1776.01H0z"/>
  <g clip-path="url(#clip-path)">
    <path fill="url(#linear-gradient)" d="M1593.36 1204.57C1498.12 1144.3 1399.65 1082 1318 1000c-94.64-95.12-151.38-202.66-173.46-328.77-55-314.37-272.95-473.68-398-540.65l-72.41-38.86a2 2 0 00-1.86 3.48l72.48 38.8c124.37 66.64 341.2 225.13 395.94 537.86 22.22 126.93 79.31 235.16 174.55 330.87 81.92 82.32 180.59 144.76 276.09 205.19 60.53 38.3 117.71 74.48 169.39 114.65l41.13 32a2 2 0 002.77-.34 2.06 2.06 0 00.39-.93 2 2 0 00-.74-1.84l-41.13-32c-51.83-40.26-109.08-76.46-169.78-114.89z" opacity=".15"/>
    <path fill="url(#linear-gradient-2)" d="M1639.82 1201.61c-95.24-60.27-193.72-122.6-275.34-204.6-94.64-95.12-151.38-202.66-173.48-328.77-55-314.37-272.95-473.67-398-540.65l-72.42-38.83a2 2 0 10-1.86 3.47l72.48 38.84c124.37 66.64 341.2 225.13 395.94 537.85 22.22 126.93 79.31 235.16 174.55 330.87 81.92 82.32 180.6 144.76 276.09 205.2 60.54 38.3 117.72 74.48 169.39 114.64l41.13 31.95a2 2 0 002.77-.34 2.07 2.07 0 00.39-.92 2 2 0 00-.74-1.85l-41.13-32c-51.82-40.23-109.08-76.47-169.77-114.86z" opacity=".15"/>
    <path fill="url(#linear-gradient-3)" d="M1686.26 1198.64C1591 1138.37 1492.55 1076 1410.93 994c-94.64-95.12-151.38-202.66-173.46-328.77-55-314.37-273-473.67-398-540.65L767 85.79a2 2 0 00-1.86 3.48l72.48 38.83C962 194.74 1178.85 353.23 1233.59 666c22.21 126.93 79.31 235.16 174.55 330.88 81.92 82.31 180.59 144.75 276.09 205.19 60.53 38.3 117.71 74.47 169.39 114.64l41.13 32a2 2 0 002.77-.35 2.07 2.07 0 00.39-.92 2 2 0 00-.74-1.85l-41.13-32c-51.83-40.33-109.04-76.59-169.78-114.95z" opacity=".15"/>
    <path fill="url(#linear-gradient-4)" d="M1732.72 1195.67c-95.24-60.27-193.72-122.59-275.34-204.59C1362.74 896 1306 788.41 1283.92 662.3c-55-314.36-273-473.67-398-540.65l-72.44-38.83a2 2 0 10-1.86 3.48l72.48 38.83C1008.47 191.77 1225.3 350.26 1280 663c22.21 126.94 79.31 235.17 174.55 330.88 81.92 82.32 180.6 144.76 276.09 205.19 60.53 38.3 117.71 74.48 169.39 114.64l41.13 32a2 2 0 002.77-.35 2 2 0 00.39-.92 2 2 0 00-.74-1.85l-41.13-32c-51.79-40.3-109.04-76.52-169.73-114.92z" opacity=".15"/>
    <path fill="url(#linear-gradient-5)" d="M857.26 80.66a2 2 0 00.81 2.67l72.48 38.83c124.37 66.64 341.2 225.13 395.94 537.86C1348.7 787 1405.8 895.18 1501 990.89c81.92 82.32 180.59 144.76 276.09 205.19 60.53 38.3 117.7 74.48 169.39 114.65l41.13 32a2 2 0 102.42-3.11l-41.13-32c-51.84-40.29-109.09-76.51-169.78-114.91-95.23-60.27-193.71-122.59-275.33-204.59-94.65-95.12-151.38-202.67-173.46-328.78-55-314.36-272.95-473.67-398-540.65l-72.4-38.84a2 2 0 00-2.67.81z" opacity=".15"/>
    <path fill="url(#linear-gradient-6)" d="M1925.23 1084.94c-95.23-60.27-193.71-122.59-275.32-204.59-94.65-95.12-151.39-202.66-173.46-328.77-55-314.37-273-473.67-398-540.65L1006-27.9a2 2 0 00-2.67.8 2 2 0 00.81 2.67l72.48 38.84c124.38 66.64 341.2 225.12 395.94 537.85 22.22 126.93 79.31 235.16 174.55 330.87 81.92 82.32 180.59 144.76 276.09 205.2 60.53 38.3 117.71 74.47 169.4 114.64l41.12 32a2 2 0 002.77-.34 1.87 1.87 0 00.39-.92 2 2 0 00-.74-1.85l-41.12-32c-51.84-40.29-109.09-76.52-169.79-114.92z" opacity=".15"/>
    <path fill="url(#linear-gradient-7)" d="M1971.69 1082c-95.24-60.27-193.72-122.59-275.33-204.6-94.65-95.14-151.36-202.68-173.46-328.79-55-314.37-273-473.67-398-540.65l-72.48-38.83a2 2 0 00-2.67.8 2 2 0 00.81 2.68l72.48 38.83c124.38 66.64 341.2 225.13 395.94 537.85 22.22 126.93 79.31 235.16 174.55 330.88 81.93 82.31 180.6 144.76 276.09 205.19 60.54 38.3 117.72 74.48 169.4 114.64l41.12 32a2 2 0 002.42-3.12l-41.12-31.95c-51.8-40.32-109.06-76.55-169.75-114.93z" opacity=".15"/>
    <path fill="url(#linear-gradient-8)" d="M2018.14 1079c-95.24-60.27-193.72-122.59-275.33-204.59-94.65-95.13-151.39-202.67-173.46-328.78-55-314.37-273-473.67-398-540.65l-72.45-38.82a2 2 0 00-2.67.81 2 2 0 00.81 2.67l72.48 38.83c124.38 66.64 341.2 225.13 395.94 537.85 22.22 126.93 79.31 235.16 174.55 330.88 81.92 82.31 180.6 144.76 276.09 205.19 60.54 38.3 117.71 74.48 169.4 114.64l41.12 32a2 2 0 002.77-.35 2 2 0 00.39-.92 2 2 0 00-.74-1.85l-41.12-31.95c-51.84-40.33-109.09-76.55-169.78-114.96z" opacity=".15"/>
    <path fill="url(#linear-gradient-9)" d="M2064.6 1076.05c-95.25-60.28-193.73-122.6-275.35-204.6-94.64-95.12-151.38-202.67-173.46-328.78-55-314.36-273-473.67-398-540.65l-72.48-38.83a2 2 0 00-2.67.81 2 2 0 00.81 2.67L1216 5.5c124.38 66.64 341.2 225.13 395.94 537.86 22.22 126.93 79.31 235.16 174.55 330.87 81.93 82.32 180.6 144.76 276.09 205.19 60.54 38.3 117.71 74.48 169.4 114.65l41.12 32a2 2 0 102.42-3.11l-41.12-32c-51.87-40.29-109.12-76.52-169.8-114.91z" opacity=".15"/>
    <path fill="url(#linear-gradient-10)" d="M1189.13-39a2 2 0 00.81 2.67l72.48 38.83c124.38 66.64 341.2 225.14 395.94 537.86 22.21 126.93 79.31 235.16 174.55 330.87 81.92 82.35 180.59 144.77 276.09 205.22 60.53 38.3 117.71 74.48 169.39 114.65l41.13 32a2 2 0 002.77-.34 2.06 2.06 0 00.39-.93 2 2 0 00-.74-1.84l-41.13-32c-51.83-40.28-109.08-76.51-169.77-114.91-95.24-60.27-193.72-122.59-275.34-204.59-94.64-95.12-151.38-202.66-173.46-328.77-55-314.37-273-473.67-398-540.66l-72.44-38.84a2 2 0 00-2.67.78z" opacity=".15"/>
  </g>
  <path fill="none" stroke="#fff" stroke-dasharray="57.72" stroke-linecap="round" stroke-linejoin="round" stroke-width="5" d="M0 1395.13c370.84-.18 666.34-143.83 840-307.5 120.83-127 205.18-294.41 332.69-396 61.23-49.62 126.32-81.89 198.59-98.7 34.15-9.12 82.9-10.23 135.5-23.15 240.87-60.59 342.94-218 413.27-335.27" opacity=".7"/>
  <path fill="#fff" d="M1912.32 310.71c-59.54 95.9-192.83 257.3-431.85 300.79-108.65 13.94-161.66 26.43-232.46 69.18-153.27 91.15-253.48 288.93-355.56 399.42-5.93 6.84-305.23 348-892.45 348V1776h1920V298.33z"/>
  <g clip-path="url(#clip-path-2)">
    <path fill="url(#linear-gradient-11)" d="M-123.56 1084.94c-95.24-60.27-193.71-122.59-275.33-204.59-94.64-95.12-151.38-202.66-173.46-328.77-55-314.37-272.95-473.67-398-540.65l-72.48-38.83a2 2 0 00-2.67.8 2 2 0 00.81 2.67l72.48 38.84C-847.8 81.05-631 239.53-576.23 552.26c22.23 126.93 79.31 235.16 174.55 330.87 81.92 82.32 180.59 144.76 276.09 205.2C-65.06 1126.63-7.88 1162.8 43.8 1203l41.13 32a2 2 0 002.77-.34 2.07 2.07 0 00.39-.92 2 2 0 00-.74-1.85l-41.13-32c-51.83-40.32-109.08-76.55-169.78-114.95z" opacity=".15"/>
    <path fill="url(#linear-gradient-12)" d="M-77.1 1082c-95.24-60.27-193.72-122.59-275.34-204.6-94.64-95.12-151.38-202.66-173.46-328.77-55-314.37-273-473.67-398-540.65l-72.48-38.83a2 2 0 00-2.67.8 2 2 0 00.81 2.68l72.48 38.83c124.37 66.64 341.2 225.13 395.94 537.85 22.21 126.93 79.31 235.16 174.55 330.88 81.92 82.31 180.6 144.76 276.09 205.19 60.54 38.3 117.72 74.48 169.39 114.64l41.13 32a2 2 0 002.77-.35 2.07 2.07 0 00.39-.92 2 2 0 00-.74-1.85l-41.13-31.95C40.85 1156.61-16.41 1120.38-77.1 1082z" opacity=".15"/>
    <path fill="url(#linear-gradient-13)" d="M-30.66 1079c-95.23-60.26-193.71-122.58-275.34-204.58-94.64-95.13-151.38-202.67-173.46-328.78C-534.47 231.27-752.4 72-877.41 5l-72.48-38.83a2 2 0 00-2.67.81 2 2 0 00.81 2.67l72.48 38.83c124.37 66.63 341.2 225.12 395.94 537.84C-461.12 673.25-404 781.48-308.78 877.2c81.92 82.31 180.59 144.76 276.09 205.19C27.84 1120.69 85 1156.87 136.7 1197l41.13 32a2 2 0 002.77-.35 2 2 0 00.39-.92 2 2 0 00-.74-1.85l-41.13-31.95C87.29 1153.63 30 1117.41-30.66 1079z" opacity=".15"/>
    <path fill="url(#linear-gradient-14)" d="M15.8 1076.05c-95.24-60.28-193.72-122.6-275.34-204.6-94.64-95.12-151.38-202.67-173.46-328.78C-488 228.31-705.95 69-831 2l-72.48-38.83a2 2 0 00-2.67.81 2 2 0 00.81 2.67l72.52 38.85c124.37 66.64 341.2 225.13 395.94 537.86 22.21 126.93 79.31 235.16 174.55 330.87 81.92 82.32 180.6 144.76 276.09 205.19 60.53 38.3 117.71 74.48 169.39 114.65l41.13 32a2 2 0 102.42-3.11l-41.13-32c-51.83-40.29-109.08-76.52-169.77-114.91z" opacity=".15"/>
    <path fill="url(#linear-gradient-15)" d="M-859.66-39a2 2 0 00.81 2.67l72.48 38.83C-662 69.17-445.17 227.67-390.43 540.39c22.21 126.93 79.31 235.16 174.55 330.87C-134 953.58-35.29 1016 60.21 1076.45c60.53 38.3 117.7 74.48 169.39 114.65l41.13 32a2 2 0 002.77-.34 2.06 2.06 0 00.39-.93 2 2 0 00-.74-1.84L232 1188c-51.84-40.28-109.09-76.51-169.78-114.91C-33 1012.8-131.47 950.48-213.09 868.48c-94.65-95.12-151.38-202.66-173.46-328.77C-441.57 225.34-659.5 66-784.51-.95L-857-39.78a2 2 0 00-2.66.78z" opacity=".15"/>
  </g>
</svg>
