<svg id="Layer_1" data-name="Layer 1" xmlns="http://www.w3.org/2000/svg" viewBox="0 0 525 125"><defs><style>.cls-1{fill:#fff;}</style></defs><title>remirror</title><path class="cls-1" d="M84.88,43.23a12.62,12.62,0,0,1-9.27,3.85h-5.5A14.39,14.39,0,0,0,59.4,51.62,14.92,14.92,0,0,0,55,62.43V79.06a13.28,13.28,0,0,1-4.07,9.71q-4.06,4.07-11.49,4.06V62.43a28.86,28.86,0,0,1,9-21.41,29.85,29.85,0,0,1,21.66-8.85H88.74Q88.74,39.37,84.88,43.23Z"/><path class="cls-1" d="M119.79,92.83A29.67,29.67,0,0,1,98.16,84a28.9,28.9,0,0,1-9-21.41,29.15,29.15,0,0,1,9-21.48,29.58,29.58,0,0,1,21.63-8.92h18.7q0,7.2-3.89,11.06a12.78,12.78,0,0,1-9.32,3.85h-5.49a14.18,14.18,0,0,0-10.67,4.61,15.23,15.23,0,0,0-4.39,10.88,15,15,0,0,0,4.39,10.82,14.29,14.29,0,0,0,10.67,4.53h5.49a12.78,12.78,0,0,1,9.32,3.85q3.89,3.86,3.89,11.06ZM134.6,66.05a12.76,12.76,0,0,1-9.32,3.87h-9.49a7.19,7.19,0,0,1-5.28-2.11,7.1,7.1,0,0,1-2.14-5.27,7.35,7.35,0,0,1,2.14-5.35A7.06,7.06,0,0,1,115.79,55h22.7Q138.49,62.18,134.6,66.05Z"/><path class="cls-1" d="M238.27,88.77a13.28,13.28,0,0,1-4.07-9.71V62.57a15.3,15.3,0,0,0-4.35-10.92,14.79,14.79,0,0,0-21.42,0A15.18,15.18,0,0,0,204,62.57V92.83q-7.42,0-11.49-4.06a13.24,13.24,0,0,1-4.07-9.71V62.57a15.27,15.27,0,0,0-4.36-10.92,14.78,14.78,0,0,0-21.41,0,15.18,15.18,0,0,0-4.42,10.88V79.06a13.27,13.27,0,0,1-4,9.74c-2.68,2.69-6.53,4-11.52,4V62.57a29.11,29.11,0,0,1,9-21.48,30.79,30.79,0,0,1,44.57,1.28,31.33,31.33,0,0,1,10.35-7.49,30,30,0,0,1,12.49-2.71,29.61,29.61,0,0,1,21.63,8.92,29.19,29.19,0,0,1,9,21.48V92.83Q242.34,92.83,238.27,88.77Z"/><path class="cls-1" d="M259,88.77A13.28,13.28,0,0,1,255,79.06V32.17q7.43,0,11.49,4.06a13.28,13.28,0,0,1,4.07,9.71V92.83Q263.11,92.83,259,88.77Z"/><path class="cls-1" d="M322.63,43.23a12.64,12.64,0,0,1-9.28,3.85h-5.49a14.39,14.39,0,0,0-10.71,4.54,14.92,14.92,0,0,0-4.42,10.81V79.06a13.28,13.28,0,0,1-4.07,9.71c-2.71,2.71-6.55,4.06-11.49,4.06V62.43a28.83,28.83,0,0,1,9-21.41,29.83,29.83,0,0,1,21.66-8.85h18.63Q326.49,39.37,322.63,43.23Z"/><path class="cls-1" d="M373.59,43.23a12.63,12.63,0,0,1-9.27,3.85h-5.5a14.39,14.39,0,0,0-10.71,4.54,14.92,14.92,0,0,0-4.42,10.81V79.06a13.28,13.28,0,0,1-4.07,9.71q-4.06,4.07-11.49,4.06V62.43a28.86,28.86,0,0,1,9-21.41,29.85,29.85,0,0,1,21.66-8.85h18.63Q377.45,39.37,373.59,43.23Z"/><path class="cls-1" d="M400.15,92.83A29.67,29.67,0,0,1,378.52,84a28.9,28.9,0,0,1-9-21.41,29.15,29.15,0,0,1,9-21.48,30.72,30.72,0,0,1,43.29,0,29.11,29.11,0,0,1,9,21.48,28.86,28.86,0,0,1-9,21.41A29.81,29.81,0,0,1,400.15,92.83Zm0-45.75a14.23,14.23,0,0,0-10.71,4.57,15.3,15.3,0,0,0-4.35,10.92,15,15,0,0,0,4.39,10.82,14.87,14.87,0,0,0,21.37,0,15,15,0,0,0,4.43-10.82,15.17,15.17,0,0,0-4.43-10.92A14.38,14.38,0,0,0,400.15,47.08Z"/><path class="cls-1" d="M481.73,43.23a12.66,12.66,0,0,1-9.28,3.85H467a14.37,14.37,0,0,0-10.7,4.54,14.89,14.89,0,0,0-4.43,10.81V79.06a13.28,13.28,0,0,1-4.07,9.71q-4.06,4.07-11.49,4.06V62.43a28.86,28.86,0,0,1,9-21.41A29.85,29.85,0,0,1,467,32.17h18.63Q485.58,39.37,481.73,43.23Z"/></svg>