<svg width="808" height="534" xmlns="http://www.w3.org/2000/svg">
  <g fill="none" fill-rule="evenodd">
    <g>
      <path d="M559.824 241.226l5.025-1.969c.481-.19.955-.394 1.458-.59-19.152-7.052-30.86-26.435-28.19-46.669 2.671-20.234 19.007-35.915 39.333-37.756l-3.5 17.648 13.287-17.444h.116c23.884 3.284 40.585 25.303 37.308 49.188-.11.824-.284 1.626-.437 2.435 4.09-3.23 7.927-6.796 10.8-10.938 5.834-8.416 7.81-18.786 9.823-31.482 3.989-25.144 7.584-50.565 10.822-75.972-20.54-6.197-33.526-26.406-30.628-47.663.182-1.328.437-2.618.729-3.895.073-.32.146-.641.226-.955a48.563 48.563 0 011.072-3.646c.065-.197.153-.38.219-.569.364-.999.729-1.984 1.203-2.917.16-.365.32-.73.488-1.072a42.069 42.069 0 011.62-3.055c.196-.329.408-.642.605-.97.452-.73.926-1.459 1.414-2.137.263-.365.518-.73.788-1.087l.197-.284c12.776-16.723 35.672-21.938 54.43-12.397l-4.55 22.964 13.126-17.24c14.492 12.278 19.314 32.554 11.902 50.041h.05c-.123.292-.277.569-.4.86-.241.54-.49 1.073-.73 1.605-.335.678-.729 1.342-1.057 1.998-.277.496-.547.992-.846 1.458-.43.73-.897 1.386-1.364 2.064-.277.394-.532.802-.817 1.189-.729 1.014-1.545 1.983-2.377 2.917-.292.328-.605.627-.911.948a42.985 42.985 0 01-1.809 1.838c-.386.364-.795.729-1.196 1.064a27.626 27.626 0 01-1.772 1.459c-.43.342-.868.67-1.305.991-.635.46-1.276.89-1.925 1.32-.438.285-.876.57-1.32.84a39.83 39.83 0 01-2.261 1.253c-.387.197-.73.416-1.16.606a43.527 43.527 0 01-3.536 1.538c-.226.088-.467.153-.693.234-1.006.364-2.02.729-3.048.984-.445.124-.897.226-1.35.336-.838.204-1.684.393-2.537.554-.486.087-.99.168-1.51.24-.838.124-1.684.22-2.538.292-.503.044-.999.088-1.509.117-.919.044-1.845.05-2.771.044a1.517 1.517 0 00-.182 0 2589.887 2589.887 0 01-4.318 32.086 43.623 43.623 0 0163.007-7.526l-11.435 19.384 18.385-12.098a43.521 43.521 0 018.386 32.203 42.85 42.85 0 01-3.282 11.624 43.63 43.63 0 01-81.084-2.917c-.168 1.08-.328 2.188-.496 3.252-1.78 11.194-3.989 25.13-11.836 36.463-5.316 7.7-12.637 13.388-19.755 18.391a257.616 257.616 0 01-14.205 9.312 43.645 43.645 0 01-17.889 10.02 274.016 274.016 0 01-23.839 10.8l-5.068 1.984c-4.558 1.78-9.225 3.602-13.855 5.542.729.066 1.458.124 2.187.219 18.828 2.585 33.824 17.047 37.09 35.77l-30.855 16.852 30.76-1.378a43.142 43.142 0 01-8.328 18.727c-14.463 18.722-41.206 22.518-60.309 8.56l1.532 2.852a478.413 478.413 0 013.004 5.615c13.367 25.334 14.337 47.212 2.735 61.614l-9.48-7.62c11.296-14.017 2.333-36.295-4.011-48.327-.963-1.823-1.954-3.647-2.917-5.513-8.583-15.92-18.318-33.961-14.417-53.162 5.834-28.951 37.228-41.202 62.481-51.047zM196.604 378.484l-3.924-1.539c-.379-.146-.729-.313-1.123-.46 14.952-5.513 24.089-20.65 22.003-36.449-2.087-15.799-14.84-28.044-30.71-29.488l2.735 13.782-10.37-13.622h-.095a34.1 34.1 0 00-29.17 38.417c.088.649.227 1.268.343 1.903a40.72 40.72 0 01-8.43-8.554c-4.543-6.563-6.104-14.672-7.679-24.583a2031.602 2031.602 0 01-8.4-59.31c16.034-4.846 26.166-20.63 23.897-37.227a34.437 34.437 0 00-.576-3.04l-.175-.73a35.267 35.267 0 00-.84-2.83c-.05-.153-.116-.299-.174-.444a35.179 35.179 0 00-.934-2.298c-.13-.277-.255-.561-.386-.838-.394-.81-.81-1.604-1.262-2.377-.153-.263-.32-.51-.474-.73-.357-.569-.729-1.13-1.108-1.67-.204-.284-.401-.576-.613-.853l-.153-.219c-9.977-13.057-27.849-17.14-42.507-9.713l3.558 17.94-10.26-13.463a33.895 33.895 0 00-9.298 39.08h-.036c.094.227.211.445.313.671.19.423.38.839.584 1.255.262.525.54 1.042.831 1.553.211.394.423.78.656 1.16.336.546.73 1.079 1.065 1.611.219.306.416.627.642.926a34.664 34.664 0 001.852 2.283c.226.255.474.488.73.729.459.489.925.97 1.414 1.458.299.292.62.562.933.832.453.403.912.79 1.379 1.16.335.262.678.517 1.02.772.496.358 1 .73 1.503 1.029.343.226.685.444 1.035.656.576.35 1.167.663 1.765.977.306.16.598.328.904.481a34.33 34.33 0 002.764 1.196c.175.073.365.117.54.183.78.284 1.575.547 2.384.773.343.094.73.175 1.05.255a35.5 35.5 0 001.984.437l1.174.19c.657.095 1.32.168 1.984.226.394.036.78.066 1.181.088.73.036 1.459.043 2.188.036h.138c1.07 8.372 2.193 16.736 3.37 25.093a34.063 34.063 0 00-49.21-5.936l8.853 15.052-14.351-9.444a33.96 33.96 0 00-6.563 25.152 33.4 33.4 0 002.574 9.086 34.077 34.077 0 0063.327-2.275c.131.838.255 1.692.387 2.537 1.385 8.751 3.114 19.632 9.24 28.5 4.156 6.008 9.873 10.45 15.43 14.358a207.507 207.507 0 0011.092 7.292 34.187 34.187 0 0013.972 7.833 207.342 207.342 0 0018.625 8.43l3.952 1.553c3.559 1.385 7.205 2.807 10.8 4.324-.568.051-1.145.095-1.72.175a34.107 34.107 0 00-28.966 27.908l24.065 13.127-24.021-1.072a34.114 34.114 0 0053.65 21.294c-.401.729-.795 1.458-1.196 2.224a319.795 319.795 0 00-2.348 4.375c-10.436 19.785-11.194 36.878-2.13 48.13l7.388-5.95c-8.824-10.94-1.823-28.346 3.135-37.746.73-1.422 1.525-2.859 2.305-4.303 6.702-12.397 14.3-26.522 11.274-41.523-4.529-22.562-29.068-32.1-48.786-39.816z" fill="#F2F2F2" fill-rule="nonzero"/>
      <ellipse fill="#3F3D56" fill-rule="nonzero" cx="404" cy="516.07" rx="404" ry="17.137"/>
      <ellipse fill="#000" fill-rule="nonzero" opacity=".1" cx="404" cy="516.07" rx="404" ry="17.137"/>
      <ellipse fill="#3F3D56" fill-rule="nonzero" cx="404" cy="506.59" rx="404" ry="17.137"/>
      <path d="M61.986 500.493c-2.188-4.018.291-8.94 3.12-12.528 2.83-3.588 6.28-7.293 6.207-11.88-.103-6.563-7.074-10.435-12.638-13.913a61.825 61.825 0 01-11.347-9.123 16.773 16.773 0 01-3.486-4.667c-1.152-2.567-1.116-5.484-1.043-8.3.243-9.363.705-18.716 1.386-28.06" stroke="#3F3D56" stroke-width="4"/>
      <path d="M33.625 411.504a10.21 10.21 0 015.105-8.38l2.29 4.53-.066-5.484a10.107 10.107 0 013.37-.409c5.625.275 9.966 5.055 9.699 10.681-.268 5.627-5.04 9.974-10.668 9.715-5.626-.259-9.98-5.026-9.73-10.653zM51.878 480.782a10.21 10.21 0 0019.325-4.2 10.078 10.078 0 00-.663-4.15 10.21 10.21 0 00-19.158.11l6.396 5.199-7.03-1.634a10.13 10.13 0 001.13 4.675zM56.932 460.91a10.21 10.21 0 003.252-20.083l.051 4.222-2.319-4.587c-5.648-.264-10.441 4.102-10.705 9.75-.264 5.649 4.102 10.442 9.75 10.705l-.03-.007zM32.087 444.378a10.22 10.22 0 10.962-20.419 10.122 10.122 0 00-5.484 1.298l1.809 4.96-3.727-3.574a10.21 10.21 0 00-3.303 7.066 9.72 9.72 0 00.262 2.808 10.21 10.21 0 009.48 7.861z" fill="#7963D2" fill-rule="nonzero"/>
      <path d="M35.004 414.231c2.362.263 4.66 1 7.03 1.145 2.37.146 4.973-.423 6.475-2.26.81-1 1.21-2.254 1.889-3.333a7.35 7.35 0 012.581-2.428 10.21 10.21 0 11-19.135 6.796c.387.015.773.044 1.16.08zM32.087 444.378a10.21 10.21 0 009.735-14.585 7.584 7.584 0 00-2.056 2.064c-.73 1.101-1.175 2.37-2.028 3.384-1.597 1.874-4.317 2.486-6.789 2.37-2.472-.117-4.857-.81-7.292-1.036-.343 0-.686-.058-1.029-.065a10.21 10.21 0 009.459 7.868zM56.932 460.91a10.21 10.21 0 009.823-14.41 8.284 8.284 0 00-2.188 2.079c-.795 1.123-1.29 2.413-2.188 3.449-1.72 1.925-4.623 2.603-7.241 2.538-2.618-.066-4.973-.679-7.497-.868a10.21 10.21 0 009.29 7.212zM51.878 480.782a10.21 10.21 0 0019.325-4.2 10.078 10.078 0 00-.663-4.15 10.21 10.21 0 00-2.246 1.998c-.978 1.189-1.612 2.53-2.742 3.646-2.093 2.057-5.47 2.917-8.474 2.983a45.468 45.468 0 01-5.2-.277z" fill="#000" fill-rule="nonzero" opacity=".1"/>
      <path d="M77.438 495.87s-8.08-.248-10.508-1.984c-2.429-1.735-12.397-3.806-13.032-1.02-.634 2.785-12.142 13.855-3.019 13.899 9.123.044 21.192-1.459 23.62-2.917 2.429-1.459 2.94-7.978 2.94-7.978z" fill="#656380" fill-rule="nonzero"/>
      <path d="M50.711 505.795c9.123.073 21.192-1.459 23.628-2.917 1.845-1.123 2.581-5.17 2.83-7.037h.27s-.511 6.512-2.918 8.021c-2.406 1.51-14.504 2.976-23.62 2.917-2.632 0-3.544-.955-3.493-2.348.343.824 1.35 1.364 3.303 1.364z" fill="#000" fill-rule="nonzero" opacity=".2"/>
      <path d="M769.35 507.056c-2.188-4.018.292-8.94 3.121-12.528 2.83-3.588 6.28-7.292 6.206-11.88-.102-6.562-7.073-10.435-12.638-13.913a61.825 61.825 0 01-11.347-9.123 16.773 16.773 0 01-3.485-4.667c-1.153-2.567-1.116-5.484-1.043-8.299.238-9.363.7-18.717 1.385-28.061" stroke="#3F3D56" stroke-width="4"/>
      <path d="M740.99 418.067a10.21 10.21 0 015.105-8.379l2.29 4.529-.066-5.484a10.107 10.107 0 013.369-.409c5.625.28 9.961 5.06 9.692 10.686-.27 5.625-5.044 9.97-10.67 9.71-5.625-.26-9.978-5.027-9.727-10.653h.007zM759.243 487.345a10.21 10.21 0 0019.325-4.2 10.078 10.078 0 00-.664-4.15 10.21 10.21 0 00-19.157.11l6.395 5.2-7.03-1.634a10.13 10.13 0 001.13 4.674zM764.297 467.473a10.21 10.21 0 003.252-20.083l.051 4.222-2.319-4.587c-5.649-.264-10.441 4.102-10.705 9.75-.264 5.649 4.101 10.442 9.75 10.706l-.03-.008zM739.451 450.941c5.639.266 10.425-4.09 10.69-9.728.267-5.638-4.089-10.425-9.727-10.69a10.122 10.122 0 00-5.484 1.298l1.808 4.958-3.726-3.573a10.21 10.21 0 00-3.303 7.066 9.72 9.72 0 00.262 2.808 10.21 10.21 0 009.48 7.861z" fill="#7963D2" fill-rule="nonzero"/>
      <path d="M742.368 420.794c2.363.263 4.66 1 7.03 1.145 2.37.146 4.974-.423 6.476-2.26.81-1 1.21-2.254 1.889-3.333a7.35 7.35 0 012.581-2.428 10.21 10.21 0 11-19.135 6.796c.386.015.773.044 1.16.08zM739.451 450.941a10.21 10.21 0 009.736-14.585 7.584 7.584 0 00-2.057 2.064c-.73 1.101-1.174 2.37-2.027 3.384-1.597 1.874-4.317 2.487-6.79 2.37-2.471-.117-4.856-.81-7.292-1.036-.343 0-.685-.058-1.028-.065a10.21 10.21 0 009.458 7.868zM764.297 467.473a10.21 10.21 0 009.822-14.41 8.284 8.284 0 00-2.187 2.079c-.795 1.123-1.291 2.414-2.188 3.449-1.721 1.925-4.623 2.603-7.241 2.538-2.618-.066-4.974-.678-7.497-.868a10.21 10.21 0 009.29 7.212zM759.243 487.345a10.21 10.21 0 0019.325-4.2 10.078 10.078 0 00-.664-4.15 10.21 10.21 0 00-2.246 1.998c-.977 1.189-1.612 2.53-2.742 3.647-2.093 2.056-5.47 2.917-8.474 2.982a45.468 45.468 0 01-5.2-.277z" fill="#000" fill-rule="nonzero" opacity=".1"/>
      <path d="M784.803 502.433s-8.08-.248-10.509-1.983c-2.428-1.736-12.397-3.807-13.031-1.021-.635 2.785-12.142 13.855-3.02 13.899 9.124.044 21.193-1.459 23.621-2.917 2.428-1.459 2.939-7.978 2.939-7.978z" fill="#656380" fill-rule="nonzero"/>
      <path d="M758.076 512.358c9.123.073 21.192-1.458 23.628-2.917 1.845-1.123 2.581-5.17 2.829-7.037h.27s-.51 6.512-2.917 8.022c-2.407 1.51-14.505 2.975-23.62 2.917-2.633 0-3.544-.956-3.493-2.349.342.824 1.349 1.364 3.303 1.364z" fill="#000" fill-rule="nonzero" opacity=".2"/>
      <path d="M543.7 241.488a305.435 305.435 0 00-14.584-4.594 297.87 297.87 0 002.253-9.954c11.041-53.606 3.822-96.792-20.834-111.005-23.642-13.637-62.306.583-101.365 34.559a311.998 311.998 0 00-11.281 10.355 288.81 288.81 0 00-7.511-6.935c-40.918-36.338-81.909-51.645-106.572-37.388-23.62 13.673-30.628 54.27-20.674 105.076a269.355 269.355 0 003.348 15.008 298.895 298.895 0 00-16.773 5.28c-47.977 16.692-78.62 42.945-78.62 70.138 0 28.083 32.897 56.254 82.871 73.333a270.641 270.641 0 0012.252 3.835 301.114 301.114 0 00-3.559 16.175c-9.48 49.924-2.071 89.565 21.484 103.151 24.334 14.045 65.172-.394 104.93-35.15 3.143-2.748 6.293-5.665 9.48-8.714a299.222 299.222 0 0012.244 11.172c38.519 33.144 76.57 46.533 100.096 32.904 24.306-14.067 32.203-56.655 21.95-108.46a237.557 237.557 0 00-2.72-12.113 265.27 265.27 0 008.43-2.633c51.951-17.21 85.759-45.038 85.759-73.5 0-27.296-31.635-53.687-80.581-70.54h-.022z" fill="#53C1DE" fill-rule="nonzero"/>
      <path d="M532.434 367.151c-2.48.824-5.017 1.612-7.613 2.385a453.297 453.297 0 00-22.95-57.413 454.361 454.361 0 0022.06-56.575 281.723 281.723 0 0113.47 4.252c41.938 14.431 67.52 35.776 67.52 52.228 0 17.502-27.631 40.261-72.487 55.123zm-18.61 36.885c4.536 22.906 5.177 43.616 2.188 59.798-2.699 14.549-8.124 24.248-14.833 28.134-14.286 8.263-44.827-2.479-77.767-30.825a280.124 280.124 0 01-11.398-10.391 455.215 455.215 0 0037.987-48.232 452.276 452.276 0 0061.38-9.48c.924 3.733 1.743 7.38 2.457 10.938l-.014.058zm-188.232 86.518c-13.958 4.93-25.071 5.068-31.788 1.196-14.293-8.248-20.236-40.109-12.127-82.77a300.578 300.578 0 013.303-15.044 456.352 456.352 0 0061.074 8.846 470.427 470.427 0 0038.905 48.057 233.894 233.894 0 01-8.634 7.956c-17.582 15.373-35.208 26.253-50.733 31.759zm-65.37-123.512c-22.103-7.555-40.348-17.37-52.862-28.076-11.238-9.626-16.911-19.186-16.911-26.938 0-16.503 24.604-37.556 65.632-51.856a270.851 270.851 0 0115.598-4.908 464.585 464.585 0 0022.089 57.23 471.302 471.302 0 00-22.359 58.048 232.941 232.941 0 01-11.186-3.5zm21.914-149.16c-8.517-43.528-2.866-76.365 11.37-84.591 15.16-8.751 48.683 3.734 84.023 35.113a252.37 252.37 0 016.796 6.271 463.718 463.718 0 00-38.599 47.78 472.855 472.855 0 00-60.476 9.4 269.088 269.088 0 01-3.114-13.965v-.007zm195.517 48.27a618.196 618.196 0 00-13.775-22.665c14.46 1.83 28.31 4.251 41.319 7.226a412.415 412.415 0 01-14.505 39.022 662.38 662.38 0 00-13.039-23.584zm-79.75-77.643a415.157 415.157 0 0126.669 32.189 568.84 568.84 0 00-53.563 0c8.802-11.61 17.823-22.403 26.895-32.182v-.007zm-80.216 77.774a575.343 575.343 0 00-12.798 23.438c-5.637-13.367-10.458-26.516-14.395-39.212 12.929-2.917 26.719-5.258 41.085-7.059a556.126 556.126 0 00-13.907 22.833h.015zm14.3 115.694a411.76 411.76 0 01-41.749-6.716c4.004-12.915 8.933-26.348 14.694-40.007a570.36 570.36 0 0012.842 23.453 554.377 554.377 0 0014.199 23.27h.014zm66.463 54.934c-9.188-9.874-18.34-20.813-27.266-32.634a667.23 667.23 0 0026.515.518c9.237 0 18.355-.204 27.354-.613a411.249 411.249 0 01-26.617 32.729h.014zm92.388-102.35a410.432 410.432 0 0115.256 39.86 409.36 409.36 0 01-42.296 7.213 689.158 689.158 0 0013.914-23.066 597.808 597.808 0 0013.126-24.006zm-29.899 14.337a638.316 638.316 0 01-21.738 35.077 582.43 582.43 0 01-41.502 1.459c-14.162 0-27.82-.438-41.034-1.299a553.373 553.373 0 01-22.162-35.127 533.95 533.95 0 01-19.332-36.52 552.144 552.144 0 0119.274-36.536 541.786 541.786 0 0121.972-35.003 547.515 547.515 0 0141.268-1.553c13.972 0 27.871.54 41.34 1.56a598.654 598.654 0 0121.878 34.865 625.31 625.31 0 0119.536 36.367 580.075 580.075 0 01-19.478 36.681l-.022.03zm39.94-216.19c15.176 8.75 21.076 44.046 11.545 90.33a264.37 264.37 0 01-2.042 9.007 463.608 463.608 0 00-60.593-9.575 455.893 455.893 0 00-38.307-47.81 292.612 292.612 0 0110.42-9.56c33.459-29.118 64.728-40.611 78.978-32.393z" fill="#FFF" fill-rule="nonzero"/>
      <path d="M397.685 271.555a40.473 40.473 0 11-40.473 40.473 40.466 40.466 0 0140.473-40.473" fill="#53C1DE" fill-rule="nonzero"/>
      <path d="M407.836 14.877c0 6.685-5.42 12.105-12.106 12.105-6.685 0-12.105-5.42-12.105-12.105 0-6.686 5.42-12.106 12.105-12.106a12.048 12.048 0 0112.106 12.106z" fill="#3F3D56" fill-rule="nonzero"/>
      <path d="M386.06 17.932A12.12 12.12 0 01395.17.036a12.105 12.105 0 101.028 24.116 12.105 12.105 0 01-10.136-6.22zM380.599 31.737h32.429v50.588h-32.429z" fill="#3F3D56" fill-rule="nonzero"/>
      <path fill="#000" fill-rule="nonzero" opacity=".1" d="M380.599 31.737h32.429v50.588h-32.429z"/>
      <path d="M329.37 215.272s-3.465 9.517-11.668 10.815c-8.204 1.298-12.974 3.456-12.974 3.456l19.456 12.536 10.378-1.298s1.298-13.403 5.622-16.43c4.324-3.026-10.815-9.079-10.815-9.079zM469.88 215.272s3.464 9.517 11.668 10.815c8.204 1.298 12.973 3.456 12.973 3.456l-19.456 12.536-10.377-1.298s-1.299-13.403-5.623-16.43c-4.324-3.026 10.815-9.079 10.815-9.079z" fill="#A0616A" fill-rule="nonzero"/>
      <path d="M375.195 131.395s-5.185 2.596-6.913 7.788c0 0-9.48 3.026-14.702 11.238 0 0-6.49 6.92-7.35 10.377-.861 3.456-10.779 24.21-10.779 24.21s-9.947 32.43-15.132 35.887c0 0 16.43-3.457 19.457 12.973 0 0 3.887 0 8.21-15.132 4.325-15.132 14.702-33.727 14.702-33.727s3.457-12.966 6.483-15.132c3.027-2.166 7.781-12.106 12.106-9.48 4.324 2.625 32.86-.438 32.86-.438s16.845 7.76 17.268 12.944c.423 5.185 3.457 5.623 3.887 9.947.43 4.325 16.43 38.475 16.43 38.475s3.026 9.48 3.894 11.668c0 0 9.48-22.913 22.052-9.94 0 0-.438-8.649-4.324-13.855-3.887-5.207-20.755-45.826-20.755-45.826s-1.728-6.053-3.456-7.781c-1.729-1.728-15.14-15.57-19.894-15.57 0 0-2.589-6.482-5.615-7.35l-48.43-1.276zM336.283 237.755a21.068 21.068 0 01-20.58-2.764 41.107 41.107 0 00-9.18-5.324c-4.588-1.852-10.072-3.223-11.742-.124-3.026 5.623 36.747 19.457 36.747 19.457s5.192-3.027 4.755-11.245zM462.966 237.755a21.068 21.068 0 0020.58-2.764 41.107 41.107 0 019.18-5.324c4.588-1.852 10.072-3.223 11.742-.124C507.494 235.166 467.72 249 467.72 249s-5.192-3.027-4.755-11.245z" fill="#3F3D56" fill-rule="nonzero"/>
      <path d="M389.328 60.286c-.16 1.503-.657 3.129-1.94 3.924-1.05.656-2.377.605-3.588.853A8.357 8.357 0 00378.097 70a12.769 12.769 0 00-.547 7.693 28.6 28.6 0 001.109 3.69c1.269 3.588 2.8 7.147 5.17 10.13a43.025 43.025 0 006.782 6.395c1.539 1.254 3.129 2.53 5.025 3.121 1.285.34 2.608.516 3.938.525 1.64.073 3.39.124 4.812-.693 2.188-1.261 2.837-4.047 4.026-6.286 1.006-1.896 2.509-3.507 3.45-5.44a21.505 21.505 0 001.458-4.754l2.02-8.97c.729-3.26 1.4-6.935-.43-9.728a1.663 1.663 0 00-.54-.562 2.035 2.035 0 00-1.109-.11 11.989 11.989 0 01-6.672-1.523 2.866 2.866 0 01-.839-.657 3.442 3.442 0 01-.51-1.546 16.19 16.19 0 00-.934-3.245 2.188 2.188 0 00-.634-.977 2.297 2.297 0 00-1.028-.343 83.476 83.476 0 00-9.43-.984c-1.035-.051-2.596-.467-3.31.452-.715.919-.489 3.005-.576 4.098z" fill="#A0616A" fill-rule="nonzero"/>
      <path d="M389.328 60.286c-.16 1.503-.657 3.129-1.94 3.924-1.05.656-2.377.605-3.588.853A8.357 8.357 0 00378.097 70a12.769 12.769 0 00-.547 7.693 28.6 28.6 0 001.109 3.69c1.269 3.588 2.8 7.147 5.17 10.13a43.025 43.025 0 006.782 6.395c1.539 1.254 3.129 2.53 5.025 3.121 1.285.34 2.608.516 3.938.525 1.64.073 3.39.124 4.812-.693 2.188-1.261 2.837-4.047 4.026-6.286 1.006-1.896 2.509-3.507 3.45-5.44a21.505 21.505 0 001.458-4.754l2.02-8.97c.729-3.26 1.4-6.935-.43-9.728a1.663 1.663 0 00-.54-.562 2.035 2.035 0 00-1.109-.11 11.989 11.989 0 01-6.672-1.523 2.866 2.866 0 01-.839-.657 3.442 3.442 0 01-.51-1.546 16.19 16.19 0 00-.934-3.245 2.188 2.188 0 00-.634-.977 2.297 2.297 0 00-1.028-.343 83.476 83.476 0 00-9.43-.984c-1.035-.051-2.596-.467-3.31.452-.715.919-.489 3.005-.576 4.098z" fill="#000" fill-rule="nonzero" opacity=".1"/>
      <path d="M383.472 65.442a19.638 19.638 0 00-5.2-.817c-4.17-.102-8.634 1.335-11.04 4.74a11.187 11.187 0 00-1.67 8.365 17.188 17.188 0 003.792 7.774 23.336 23.336 0 012.917 3.82c1.152 2.189 1.188 4.807 1.502 7.293.73 5.922 3.252 11.486 4.251 17.37 1 5.886.139 12.704-4.506 16.445-.78.627-1.729 1.291-1.794 2.29-.102 1.597 1.976 2.275 3.573 2.428 4.777.453 9.677.897 14.315-.335 1.918-.51 3.77-1.305 5.725-1.67 4.958-.926 9.946.977 14.913 1.889 3.593.593 7.23.888 10.873.882a5.79 5.79 0 002.5-.328 2.005 2.005 0 001.27-1.998 3.471 3.471 0 00-.86-1.459c-2.51-3.099-3.275-7.22-3.96-11.15l-2.298-13.206c-1.232-7.06-2.377-14.731.963-21.068 2.4-4.558 6.826-7.767 9.356-12.251a7.176 7.176 0 001.13-4.58c-.379-2.253-2.413-3.865-4.499-4.806a16.926 16.926 0 00-12.703-.466c.073 3.157-.73 6.351-1.247 9.48l-.883 5.104a64.779 64.779 0 01-1.976 8.897 9.37 9.37 0 01-1.582 3.223 8.335 8.335 0 01-2.793 2.035 16.649 16.649 0 01-7.395 1.692 9.874 9.874 0 01-3.267-.503 13.856 13.856 0 01-4.5-3.165 7.373 7.373 0 01-1.188-1.291 7.241 7.241 0 01-.81-1.947 40.415 40.415 0 01-1.392-5.455c-.22-1.415-.292-2.851-.394-4.28-.285-4.223-.285-8.89-1.123-12.952z" fill="#7963D2" fill-rule="nonzero"/>
      <path d="M379.09 149.123s-1.73 22.92 9.078 26.807c10.808 3.886 1.298-19.026 1.298-19.026l-3.464-6.914-6.913-.867zM415.836 149.123s1.728 22.92-9.08 26.807c-10.807 3.886-1.298-19.026-1.298-19.026l3.464-6.914 6.914-.867z" fill="#A0616A" fill-rule="nonzero"/>
      <path d="M369.572 72.625l-3.456 5.623s3.026 19.456 3.456 22.912a45.359 45.359 0 001.736 7.351s.43 10.377.43 14.271c0 3.895 2.188 10.378 2.188 10.378a47.27 47.27 0 002.188 10.807c1.728 4.755 3.456 10.377 3.456 10.377s2.188-6.053 10.808 3.026a5.236 5.236 0 000-7.35s-2.589-11.668-2.589-17.728c0-6.06-4.762-35.004-4.762-35.004s-3.092-32.903-13.455-24.663z" fill="#000" fill-rule="nonzero" opacity=".1"/>
      <path d="M368.712 72.166l-3.457 5.622s3.027 19.456 3.457 22.913a45.096 45.096 0 001.743 7.35s.43 10.378.43 14.265c0 3.887 2.188 10.377 2.188 10.377a47.058 47.058 0 002.188 10.807c1.728 4.762 3.463 10.377 3.463 10.377s2.188-6.052 10.808 3.027a5.236 5.236 0 000-7.344s-2.596-11.668-2.596-17.728c0-6.06-4.755-35.003-4.755-35.003s-3.092-32.882-13.469-24.663z" fill="#7963D2" fill-rule="nonzero"/>
      <path d="M425.782 69.14l2.188 2.574s2.545 14.716-3.077 33.311l-1.729 16.86s-3.026 14.272-3.456 17.728c-.43 3.457-.43 3.887-1.298 5.185a1.67 1.67 0 000 2.188l-2.596 9.48s-3.887-4.755-11.668 1.298c0 0-2.188-3.456-.438-6.483 1.75-3.026 1.729-4.324 1.298-5.192-.43-.868 1.729-5.185 1.729-6.053 0-.867 3.048-20.74 3.048-20.74s1.298-19.455 2.596-25.938c.795-3.99.78-12.879.642-19.136-.139-6.52 7.752-10.049 12.397-5.47.11.118.24.227.364.387z" fill="#000" fill-rule="nonzero" opacity=".1"/>
      <path d="M427.08 68.25l2.188 2.574s2.545 14.723-3.077 33.312l-1.728 16.86s-3.027 14.271-3.457 17.728c-.43 3.456-.438 3.894-1.298 5.192a1.663 1.663 0 000 2.188l-2.582 9.509s-3.887-4.762-11.668 1.29c0 0-2.187-3.456-.43-6.482 1.758-3.027 1.729-4.325 1.298-5.185-.43-.86 1.729-5.192 1.729-6.053 0-.86 3.026-20.754 3.026-20.754s1.298-19.456 2.596-25.947c1.298-6.49.43-25.939.43-25.939s6.92-4.754 12.974 1.707z" fill="#7963D2" fill-rule="nonzero"/>
      <circle fill="#A0616A" fill-rule="nonzero" cx="398.108" cy="44.929" r="17.298"/>
      <path d="M407.128 18.96a12.105 12.105 0 01-22.672.321c6.753-2.72 13.652-.299 13.652-.299 3.449-1.21 6.439-1.101 9.02-.022z" fill="#000" fill-rule="nonzero" opacity=".1"/>
      <path d="M398.108 19.85s-33.29-11.668-25.072 44.965c0 0 7.351 4.755 12.966 1.728 0 0-3.887-39.342 11.245-37.614 15.132 1.728 12.536 36.754 12.536 36.754s8.649 2.589 11.245-2.188c2.596-4.776-.868-51.397-22.92-43.645z" fill="#3F3D56" fill-rule="nonzero"/>
      <path d="M397.247 26.333c-10.384-1.181-11.813 16.97-11.668 28.477.124-11.442 2.05-26.982 11.668-25.881 10.8 1.232 12.572 19.442 12.696 29.753.124-9.465-.911-31-12.696-32.35zM373.036 62.219a116.227 116.227 0 01-1.29-14.971c-.036 5.88.395 11.755 1.29 17.567 0 0 7.351 4.755 12.966 1.728 0 0-.087-.933-.19-2.501-5.593 2.822-12.776-1.823-12.776-1.823zM421.028 60.957c-2.421 4.434-10.086 2.487-11.121 2.188-.051 1.604-.124 2.567-.124 2.567s8.649 2.589 11.245-2.188c.532-.977.81-3.74.729-7.438-.073 2.37-.328 4.142-.73 4.871z" fill="#000" fill-rule="nonzero" opacity=".1"/>
      <path d="M602.886 490.75c3.457-6.402-.467-14.249-4.973-19.959-4.507-5.71-10.013-11.668-9.896-18.96.168-10.465 11.267-16.634 20.142-22.184a98.28 98.28 0 0018.077-14.533c2.188-2.225 4.281-4.602 5.557-7.446 1.838-4.084 1.787-8.75 1.67-13.214a967.074 967.074 0 00-2.187-44.731" stroke="#3F3D56" stroke-width="4"/>
      <path d="M648.106 348.935a16.27 16.27 0 00-8.138-13.36l-3.646 7.22.11-8.751a16.313 16.313 0 1011.667 14.884l.007.007zM619.024 459.335a16.306 16.306 0 11.788-13.126l-10.21 8.291 11.209-2.603a16.226 16.226 0 01-1.787 7.438zM610.966 427.664c-8.26.35-15.475-5.534-16.795-13.695-1.319-8.162 3.675-16.02 11.625-18.29l-.088 6.724 3.69-7.292h.044a16.313 16.313 0 111.524 32.59v-.037zM650.564 401.316a16.313 16.313 0 117.212-30.526l-2.917 7.898 5.929-5.688a16.313 16.313 0 01-10.26 28.316h.036z" fill="#7963D2" fill-rule="nonzero"/>
      <path d="M645.919 353.281c-3.77.416-7.431 1.59-11.209 1.823-3.777.234-7.927-.67-10.311-3.646-1.291-1.582-1.933-3.58-3.02-5.309a11.668 11.668 0 00-4.105-3.865 16.313 16.313 0 1030.49 10.822c-.62.066-1.233.11-1.845.175zM650.564 401.316a16.328 16.328 0 01-15.518-23.27 11.938 11.938 0 013.281 3.29c1.16 1.75 1.867 3.777 3.23 5.388 2.539 2.983 6.885 3.96 10.823 3.785 3.938-.175 7.73-1.298 11.668-1.663.547-.043 1.094-.08 1.648-.094a16.313 16.313 0 01-15.132 12.564zM610.966 427.664a16.313 16.313 0 01-15.65-22.964 13.002 13.002 0 013.45 3.318c1.269 1.787 2.056 3.843 3.544 5.499 2.75 3.062 7.373 4.142 11.544 4.04 4.04-.088 7.927-1.08 11.945-1.386a16.306 16.306 0 01-14.833 11.493zM619.024 459.335c-3.927 7.787-13.284 11.108-21.241 7.54-7.958-3.57-11.7-12.766-8.497-20.878a16.24 16.24 0 013.58 3.194c1.554 1.889 2.575 4.033 4.376 5.79 3.332 3.275 8.714 4.624 13.505 4.748a70.81 70.81 0 008.277-.394z" fill="#000" fill-rule="nonzero" opacity=".1"/>
      <path d="M578.289 483.378s12.87-.394 16.772-3.158c3.902-2.763 19.807-6.06 20.77-1.633.962 4.426 19.346 22.038 4.812 22.154-14.534.117-33.771-2.26-37.643-4.623-3.873-2.363-4.711-12.74-4.711-12.74z" fill="#656380" fill-rule="nonzero"/>
      <path d="M620.877 499.232c-14.534.116-33.772-2.268-37.644-4.624-2.917-1.8-4.12-8.24-4.514-11.215h-.43s.817 10.384 4.689 12.74c3.872 2.355 23.11 4.74 37.643 4.623 4.193 0 5.645-1.524 5.564-3.734-.583 1.32-2.18 2.151-5.308 2.21z" fill="#000" fill-rule="nonzero" opacity=".2"/>
      <path d="M235.545 31.255l-13.309 8.438 8.08-14.695a13.126 13.126 0 00-8.021-2.873h-.219a15.737 15.737 0 01-2.757-.204l-4.514 2.859 1.933-3.515a16.087 16.087 0 01-7.89-5.987l-8.073 5.104 5.105-9.276c-4.726-5.666-11.085-9.144-18.093-9.144-8.393 0-15.868 4.995-20.696 12.776a15.49 15.49 0 01-13.68 7.38h-.453c-9.268 0-16.772 10.508-16.772 23.474 0 12.966 7.511 23.467 16.772 23.467a12.543 12.543 0 005.834-1.458c6.046-3.143 13.98-3.202 20.31-.394a21.148 21.148 0 0017.268.036c6.286-2.749 14.126-2.69 20.135.394a12.565 12.565 0 005.783 1.459c9.268 0 16.772-10.509 16.772-23.467a29.797 29.797 0 00-3.515-14.374z" fill="#F2F2F2" fill-rule="nonzero"/>
      <path d="M210.452 65.595a24.794 24.794 0 00-14.38 1.56 21.148 21.148 0 01-17.262-.036c-6.337-2.807-14.271-2.749-20.317.394a12.543 12.543 0 01-5.834 1.459c-8.233 0-15.08-8.3-16.51-19.238a15.737 15.737 0 004.113-4.433c4.857-7.774 12.303-12.784 20.696-12.784 8.394 0 15.781 4.937 20.609 12.63a15.89 15.89 0 0013.68 7.519h.19c6.563.007 12.251 5.265 15.015 12.93z" fill="#000" fill-rule="nonzero" opacity=".03"/>
      <path d="M583.445 48.436l-6.615 4.208 4.033-7.292a6.563 6.563 0 00-4.018-1.459h-.102a7.869 7.869 0 01-1.378-.102l-2.254 1.458.948-1.793a8.022 8.022 0 01-3.938-2.983l-4.025 2.552 2.545-4.623a11.792 11.792 0 00-9.02-4.565c-4.194 0-7.92 2.494-10.327 6.373a7.708 7.708 0 01-6.826 3.647h-.226c-4.623 0-8.371 5.243-8.371 11.667 0 6.425 3.748 11.705 8.371 11.705a6.286 6.286 0 002.917-.73 12.076 12.076 0 0110.13-.196 10.589 10.589 0 008.612 0 12.09 12.09 0 0110.042.197c.898.475 1.9.726 2.916.729 4.624 0 8.372-5.236 8.372-11.705a14.79 14.79 0 00-1.786-7.088z" fill="#F2F2F2" fill-rule="nonzero"/>
      <path d="M570.938 65.566a12.397 12.397 0 00-7.168.78 10.589 10.589 0 01-8.613 0 12.09 12.09 0 00-10.136.197c-.898.478-1.9.728-2.917.73-4.113 0-7.526-4.135-8.24-9.59a7.97 7.97 0 002.056-2.188c2.406-3.88 6.14-6.366 10.326-6.366 4.186 0 7.868 2.458 10.275 6.293a7.912 7.912 0 006.826 3.749h.109c3.274-.051 6.082 2.574 7.482 6.395z" fill="#000" fill-rule="nonzero" opacity=".03"/>
      <path d="M149.013 157.414l10.691 6.768-6.476-11.778a10.56 10.56 0 016.454-2.297h.168c.732.011 1.464-.043 2.188-.16l3.61 2.29-1.569-2.815a12.966 12.966 0 006.323-4.799l6.468 4.099-4.04-7.431c3.785-4.536 8.882-7.293 14.49-7.293 6.731 0 12.718 3.996 16.59 10.21a12.397 12.397 0 0010.94 5.914h.364c7.424 0 13.44 8.415 13.44 18.8 0 10.384-6.016 18.807-13.44 18.807a10.107 10.107 0 01-4.69-1.174 19.39 19.39 0 00-16.269-.314 16.977 16.977 0 01-13.855 0 19.427 19.427 0 00-16.131.314 10.136 10.136 0 01-4.63 1.145c-7.432 0-13.448-8.416-13.448-18.808a23.905 23.905 0 012.822-11.478z" fill="#F2F2F2" fill-rule="nonzero"/>
      <path d="M169.104 184.928c3.88-.73 7.89-.294 11.522 1.255a16.977 16.977 0 0013.856 0 19.405 19.405 0 0116.276.313 10.078 10.078 0 004.682 1.174c6.6 0 12.083-6.643 13.228-15.408a12.718 12.718 0 01-3.296-3.56c-3.872-6.227-9.86-10.209-16.59-10.209-6.731 0-12.638 3.953-16.51 10.122a12.718 12.718 0 01-10.939 6.017h-.167c-5.295-.051-9.845 4.164-12.062 10.296z" fill="#000" fill-rule="nonzero" opacity=".03"/>
    </g>
    <path d="M673.868 116.84a15.62 15.62 0 0111.083-4.84h34.65c3.767 0 7.287 1.65 10.532 4.84A14.933 14.933 0 01735 127.675v35.118c0 3.685-1.54 7.095-4.62 10.257a15.867 15.867 0 01-11.192 4.95h-34.045a17.325 17.325 0 01-11.275-4.318c-2.97-2.694-4.592-6.6-4.867-11.824v-34.1a14.328 14.328 0 014.867-10.918zm17.188 22.825l21.807 27.665h5.83c1.347-.165 2.42-.55 3.217-1.183.825-.632 1.375-1.54 1.76-2.75v-13.585c.22-2.612 1.843-4.235 4.868-4.812-3.025-1.1-4.648-2.805-4.868-5.115v-12.98c-.33-1.21-.907-2.2-1.76-2.943a5.032 5.032 0 00-2.997-1.292H713v28.05l-21.944-28.078h-6.133c-1.54.275-2.667.825-3.437 1.65s-1.265 2.145-1.485 3.933v13.337c-.963 1.898-2.475 3.025-4.538 3.438 2.338.44 3.85 1.677 4.538 3.74v13.117c.055 1.513.55 2.75 1.485 3.768.907.99 1.925 1.458 3.025 1.375H691l.055-27.335z" fill="#3655FF" fill-opacity=".8" fill-rule="nonzero"/>
    <path d="M683.125 35.633L705.44 30A40.677 40.677 0 01709 46.645C709 68.782 690.951 87 669.014 87c-1.003 0-2.01-.037-3.014-.114l16.3-28.005a16.9 16.9 0 002.929-4.265 18.446 18.446 0 00-.143-15.93 17.318 17.318 0 00-1.961-3.053zM672 64.808L664.97 87C644.703 85 629 67.714 629 47.245A39.99 39.99 0 01635.755 25l16.021 27.822c.597 1.79 3.709 8.572 10.165 11.05 3.308 1.268 6.765 1.597 10.059.936zM669.402 33c-6.62.063-12.798 5.098-14.128 11.595a14.788 14.788 0 004.082 13.312c4.006 3.915 10.363 5.21 15.623 3.06 4.647-1.901 8.152-6.362 8.881-11.327.898-6.128-2.6-12.652-8.234-15.283A14.563 14.563 0 00669.402 33zm-16.532 7L637 23.44A39.934 39.934 0 01669.283 7C684.4 7 698.27 15.586 705 29.112h-33.857c-6.004-.415-10.9 1.722-14.14 4.813A17.705 17.705 0 00652.87 40z" fill="#4285F4" fill-opacity=".8" fill-rule="nonzero"/>
    <path d="M104.195 231.463h12.61l-6.308-14.93m0-23.533L76 205.112l5.261 44.929L110.497 266l29.245-15.944L145 205.118l-34.503-12.115V193zm21.528 55.695h-8.04l-4.332-10.657h-18.31l-4.33 10.657h-8.047l21.534-47.632 21.525 47.632z" fill="#DD0031" fill-opacity=".8" fill-rule="nonzero"/>
    <path d="M579.5 153c21.815 0 39.5 17.685 39.5 39.5S601.315 232 579.5 232 540 214.315 540 192.5s17.685-39.5 39.5-39.5zm.381 50.65c-6.918.174-6.19-4.37-6.19-4.37s25.256-8.644 18.37-25.717c-3.095-4.392-6.69-5.772-11.78-5.672-5.092.1-11.36 3.204-15.454 12.39-1.952 4.384-2.615 8.537-3.013 11.684 0 0-4.474.898-6.87-1.094-2.394-1.995-3.654 0-3.654 0s-4.125 4.826-.03 6.426c4.094 1.598 10.469 1.921 10.469 1.921h-.003c.586 4.251 2.03 8.338 7.279 11.751 8.8 5.726 21.86-.322 21.86-.322 7.827-3.271 13.026-8.335 15.242-10.802.714-.798.69-2.001-.052-2.772l-2.55-2.648a2.032 2.032 0 00-2.757-.163c-3.405 2.789-12.354 9.387-20.867 9.387zm-7.388-12.08c.3-11.88 8.087-17.072 10.783-14.473 2.696 2.593 1.696 8.183-3.395 11.677-5.09 3.496-7.388 2.796-7.388 2.796z" fill="#E04E39" fill-opacity=".8" fill-rule="nonzero"/>
    <path d="M233.138 397.623c-6.713-9.702-19.865-12.506-29.983-6.394l-17.134 10.84a19.363 19.363 0 00-8.842 13.093c-.83 4.499-.108 9.145 2.05 13.184a18.644 18.644 0 00-2.906 7.308 20.75 20.75 0 003.549 15.711c6.721 9.683 19.841 12.507 29.983 6.456l17.133-10.84a19.362 19.362 0 008.811-13.093c.824-4.49.102-9.124-2.05-13.154a20.593 20.593 0 00-.611-23.111zm-31.697 54.686c-5.51 1.426-11.328-.727-14.563-5.39-1.989-2.74-2.723-6.12-2.142-9.469l.337-1.614.306-1.004.918.609c2.019 1.522 4.283 2.618 6.7 3.349l.612.213-.061.61a4.152 4.152 0 00.673 2.526c1.01 1.431 2.753 2.132 4.436 1.675.367-.122.734-.244 1.04-.426l17.072-10.84a3.658 3.658 0 001.622-2.345 3.918 3.918 0 00-.612-2.862 4.18 4.18 0 00-4.436-1.614c-.367.122-.765.274-1.071.457l-6.456 4.08c-6.112 3.614-13.992 1.913-18.05-3.897a12.437 12.437 0 01-2.142-9.47 11.722 11.722 0 015.415-7.917l17.041-10.84c1.071-.67 2.234-1.157 3.488-1.522a13.622 13.622 0 0114.563 5.36 12.495 12.495 0 011.744 11.083l-.306 1.004-.887-.609a22.744 22.744 0 00-6.73-3.349l-.613-.183.062-.609a4.188 4.188 0 00-.674-2.557c-1.01-1.432-2.753-2.04-4.436-1.614-.367.122-.734.243-1.04.426l-17.103 10.931c-.856.579-1.407 1.37-1.59 2.375a3.84 3.84 0 00.611 2.832c.98 1.431 2.754 2.04 4.406 1.614.398-.122.765-.244 1.07-.426l6.518-4.142c1.07-.7 2.264-1.217 3.487-1.552a13.571 13.571 0 0114.564 5.39c1.988 2.74 2.753 6.12 2.202 9.438a11.721 11.721 0 01-5.354 7.917l-17.072 10.81a15.028 15.028 0 01-3.549 1.552z" fill="#FF3E00" fill-opacity=".8" fill-rule="nonzero"/>
    <path d="M112.115 325.196c.257 0 .486.11.688.332.183.24.275.47.275.69 0 .222-.101.526-.303.913l-.88 1.271-1.182 1.465-1.21 1.382c-.386.46-.734.847-1.045 1.16l-.605.636c-1.064.977-2.292 1.935-3.685 2.875a34.466 34.466 0 01-4.4 2.515 30.045 30.045 0 01-4.785 1.769c-1.614.442-3.145.663-4.593.663-1.65 0-3.2-.258-4.647-.774a15.418 15.418 0 01-4.07-2.156c-1.247-.921-2.365-1.999-3.355-3.233a22.177 22.177 0 01-2.53-3.98 21.237 21.237 0 01-1.595-4.422 19.731 19.731 0 01-.55-4.616c0-1.843.293-3.648.88-5.417a22.226 22.226 0 012.392-4.975c.257 1.75.76 3.381 1.512 4.892a18.716 18.716 0 002.806 4.146 20.12 20.12 0 003.795 3.344 24.545 24.545 0 004.51 2.487c1.576.664 3.199 1.18 4.867 1.548 1.687.369 3.337.553 4.95.553 2.053 0 4.052-.221 5.995-.663a24.694 24.694 0 005.665-1.99l.55-.277.55-.138zm-42.625-3.51c0 2.027.248 4.007.743 5.942a25.665 25.665 0 002.145 5.61 24.335 24.335 0 003.41 4.893A21.779 21.779 0 0080.353 342a31.638 31.638 0 01-7.7-2.045 34.193 34.193 0 01-6.82-3.787 33.692 33.692 0 01-5.72-5.25 34.152 34.152 0 01-4.345-6.44 33.172 33.172 0 01-2.778-7.352c-.66-2.58-.99-5.233-.99-7.96 0-1.493.293-2.865.88-4.118a12.418 12.418 0 012.283-3.4 16.583 16.583 0 013.3-2.653 22.343 22.343 0 013.712-1.824 21.951 21.951 0 014.125-1.078 27.86 27.86 0 014.263-.332c1.283 0 2.585.092 3.905.277a24.304 24.304 0 017.48 2.543 17.125 17.125 0 013.19 2.293c-.642 0-1.284.065-1.925.194-.605.129-1.201.34-1.788.636v-.056a14.844 14.844 0 00-3.3 2.045 20.31 20.31 0 00-2.887 2.875 24.801 24.801 0 00-2.393 3.482 27.035 27.035 0 00-1.787 3.842 25.88 25.88 0 00-1.155 3.98 18.794 18.794 0 00-.413 3.814zM84.89 276c3.117 0 6.17.36 9.158 1.078 2.988.7 5.802 1.76 8.442 3.178a32.072 32.072 0 017.205 5.334c2.163 2.138 3.978 4.625 5.445 7.463a26.254 26.254 0 012.09 5.417 21.32 21.32 0 01.77 5.749 17.2 17.2 0 01-.632 4.698 15.406 15.406 0 01-1.898 4.09 15.447 15.447 0 01-3.025 3.372 16.405 16.405 0 01-3.987 2.433 15.16 15.16 0 01-3.053.995c-1.063.24-2.127.359-3.19.359-.77 0-1.66-.028-2.667-.083a29.165 29.165 0 01-3.025-.332 17.961 17.961 0 01-2.888-.774c-.917-.35-1.687-.81-2.31-1.382a3.134 3.134 0 01-.632-.663 1.705 1.705 0 01-.275-.912c0-.276.146-.599.44-.967.293-.369.614-.83.962-1.382.367-.516.697-1.143.99-1.88.293-.737.44-1.612.44-2.625 0-1.953-.367-3.759-1.1-5.417a16.79 16.79 0 00-2.915-4.533 19.387 19.387 0 00-4.18-3.538 25.09 25.09 0 00-4.922-2.46 26.229 26.229 0 00-4.73-1.215 30.267 30.267 0 00-4.84-.387c-2.842 0-5.647.414-8.415 1.243-2.769.83-5.29 2.11-7.563 3.842 1.302-3.206 2.96-6.09 4.978-8.65a31.75 31.75 0 016.93-6.496c2.585-1.787 5.426-3.16 8.525-4.118 3.116-.958 6.398-1.437 9.845-1.437h.027z" fill="#0078D7" fill-opacity=".8" fill-rule="nonzero"/>
  </g>
</svg>
