<svg id="Layer_1" data-name="Layer 1" xmlns="http://www.w3.org/2000/svg" viewBox="0 0 450 450">
  <defs>
    <style>
      .cls-1 {
        fill: #7963d2;
      }
      .cls-2,
      .cls-4 {
        fill: #fff;
      }
      .cls-2 {
        opacity: 0.15;
      }
      .cls-3 {
        fill: none;
        opacity: 0.5;
      }
    </style>
  </defs>
  <title>Remirror Logo Dark</title>
  <rect class="cls-1" width="450" height="450" />
  <rect class="cls-2" x="50" y="68.33" width="172.46" height="313.35" />
  <rect class="cls-3" x="227.54" y="68.33" width="172.46" height="313.35" />
  <rect class="cls-4" x="222.46" y="68.33" width="5.08" height="313.35" />
  <path
    class="cls-4"
    d="M275.09,153.76q22.55,0,40.55,11.19A20.72,20.72,0,0,1,334,153.76H352.6V304.9q-18.75,0-29-10.28a33.46,33.46,0,0,1-10.28-24.51V230.18a37.72,37.72,0,0,0-11.17-27.3,36.42,36.42,0,0,0-27-11.45,32,32,0,0,1-23.44-9.73q-9.72-9.73-9.73-27.94Z"
  />
  <path
    class="cls-4"
    d="M174.91,153.76q-22.54,0-40.55,11.19A20.72,20.72,0,0,0,116,153.76H97.4V304.9q18.75,0,29-10.28a33.46,33.46,0,0,0,10.28-24.51V230.18a37.72,37.72,0,0,1,11.17-27.3,36.42,36.42,0,0,1,27-11.45,32,32,0,0,0,23.44-9.73q9.72-9.73,9.73-27.94Z"
  />
</svg>
