<svg width="219" height="225" viewBox="0 0 219 225" fill="none" xmlns="http://www.w3.org/2000/svg">
<path d="M2.73174 7.49768H124.758L127.487 222.181L7.66997 218.542" fill="#8975D5"/>
<path d="M4.23926 222.051C3.74544 165.391 0.600546 109.667 1.04239 6.32809M1.56224 2.29953C30.4639 2.29953 62.2764 4.6387 125.278 5.73031L1.56224 2.29953ZM2.21197 4.76865C30.4898 4.82063 60.4831 5.13252 125.356 5.36644L2.21197 4.76865ZM125.642 4.43077C125.382 78.92 125.356 154.683 124.992 223.324L125.642 4.43077ZM125.33 5.57436C126.11 86.7692 125.928 167.99 125.33 222.077V5.57436ZM125.07 222.986C91.308 220.465 57.858 221.531 4.31723 223.428L125.07 222.986ZM125.252 222.96C95.9084 221.401 66.279 221.297 4.21327 222.83L125.252 222.96ZM3.87539 222.051C4.967 144.962 4.70712 61.8182 4.23928 1L3.87539 222.051Z" stroke="#8975D5"/>
<path d="M123.718 6.45801L128.007 7.75754L127.098 222.311L122.913 220.491" fill="white"/>
<path d="M121.899 5.51386C122.965 5.51386 125.928 4.42225 128.267 5.51386M122.419 5.51386C123.458 5.56584 125.149 5.27994 127.54 5.51386M129.956 224C127.617 221.531 121.509 221.531 120.47 222.051M128.397 224C126.662 223.35 123.329 222.371 121.899 222.051M121.509 219.972C121.483 163.312 121.873 112.266 121.899 8.92723M127.877 4.37887C127.877 78.8681 129.072 152.89 129.046 221.531L127.877 4.37887ZM129.046 2.42957C129.072 83.6244 128.078 168.553 128.052 222.64L129.046 2.42957ZM122.679 223.35C122.731 146.262 123.088 65.7083 123.062 4.89008L122.679 223.35Z" stroke="white"/>
<path d="M109.455 74.8443L107.573 78.8937L103.886 83.7385L100.046 86.6505L93.435 89.5368L84.4082 90.2068L78.3564 92.2942C78.3564 92.2942 71.4655 94.3643 69.0499 96.5548C66.6343 98.7453 65.6172 100.42 64.8543 102.224C64.0915 104.028 62.7184 107.894 62.693 109.182C62.6676 110.471 61.8285 116.441 61.8285 116.441L61.8539 149.221L61.7268 151.102L60.43 154.04L56.209 160.224L51.5048 163.557L42.6138 166.95H40.9865H39.4608L38.0623 166.134L37.2994 164.588V70.0545L37.5029 67.0479L38.3929 65.8883L40.0457 64.9005L42.1816 64.3077H43.453L51.6829 64.617L53.4883 64.7458L58.0652 68.2076L60.9131 72.1934L64.8543 70.1833L71.0333 66.2405L81.4842 63.2477H104.852L107.929 63.7631L110.345 65.1804L110.853 68.2076L110.345 70.9787L109.455 74.8443Z" fill="white"/>
<path d="M61.263 72.4483C60.6393 68.8356 55.4151 63.7415 51.0747 63.5335M61.341 72.3963C60.0675 69.5374 55.5191 63.5335 50.8668 63.1177M58.508 157.698C61.1591 153.435 62.3547 150.29 62.7185 146.522M59.1318 157.308C61.2111 154.189 62.9784 150.056 62.3806 146.704M46.5523 166.587C55.4931 163.806 55.7011 161.129 58.3781 157.984M46.8642 166.976C53.3619 165.157 57.2605 160.765 58.8719 157.516M34.7006 164.221C34.5707 170.589 42.0819 167.938 46.6043 167.08M35.6882 165.573C36.0521 169.394 41.952 167.47 46.4744 166.613M42.3678 63.7674C38.1054 64.0014 35.1424 65.6388 35.5323 69.3035M41.874 63.6635C37.7675 63.1437 35.3244 65.4049 35.2984 69.2515M51.4126 63.3256C45.6687 64.2093 46.5263 64.1573 42.5238 63.9754L51.4126 63.3256ZM51.3346 63.4556C44.0832 63.7934 45.6686 63.8454 41.952 63.5335L51.3346 63.4556ZM62.6146 146.444C62.6146 142.337 61.6009 139.01 61.9648 116.477L62.6146 146.444ZM62.7185 146.47C62.7185 141.116 61.5749 137.139 62.1467 116.373L62.7185 146.47ZM35.3763 69.1475C36.0261 91.6294 36.0001 128.796 35.6623 166.249L35.3763 69.1475ZM35.4543 69.2515C36.0001 115.749 36.1561 140.908 35.5583 166.067L35.4543 69.2515Z" stroke="white"/>
<path d="M108.761 79.18C111.022 73.67 110.736 72.7343 111.308 69.7454M109.073 78.5822C110.996 74.1118 112.413 71.7207 112.413 67.2763M93.6344 89.6542C98.5726 89.9141 107.357 83.2865 108.917 78.6602M94.2322 89.4983C97.7929 89.8102 107.435 82.8187 108.917 78.7381M62.2637 116.633C65.4605 92.5392 78.7937 90.0961 93.6604 89.6282M62.7055 115.853C62.7835 96.0219 80.4312 89.0564 93.8164 89.7842M84.3817 63.4816C80.3532 63.3257 63.5892 68.6798 61.0941 72.0325M84.9016 63.7155C80.2752 63.5596 68.9693 65.197 61.25 72.1105M111.334 69.5374C111.854 65.8987 110.216 64.0274 105.408 63.5336M111.36 69.8753C111.646 65.9767 109.645 63.7675 105.824 62.9878M105.512 63.5856C74.5833 63.6116 101.12 63.7675 84.9016 63.3517L105.512 63.5856ZM105.33 63.4556C87.7345 64.1054 107.955 64.1834 84.6676 63.6376L105.33 63.4556Z" stroke="white"/>
<path d="M143.18 74.8443L145.062 78.8937L148.749 83.7385L152.589 86.6505L159.2 89.5368L168.227 90.2068L174.279 92.2942C174.279 92.2942 181.169 94.3643 183.585 96.5548C186.001 98.7453 187.018 100.42 187.781 102.224C188.543 104.028 189.917 107.894 189.942 109.182C189.967 110.471 190.807 116.441 190.807 116.441L190.781 149.221L190.908 151.102L192.205 154.04L196.426 160.224L201.13 163.557L210.021 166.95H211.649H213.174L214.573 166.134L215.336 164.588V70.0545L215.132 67.0479L214.242 65.8883L212.589 64.9005L210.453 64.3077H209.182L200.952 64.617L199.147 64.7458L194.57 68.2076L191.722 72.1934L187.781 70.1833L181.602 66.2405L171.151 63.2477H147.783L144.706 63.7631L142.29 65.1804L141.782 68.2076L142.29 70.9787L143.18 74.8443Z" fill="white"/>
<path d="M191.372 72.4483C191.996 68.8356 197.22 63.7415 201.56 63.5335M191.294 72.3963C192.568 69.5374 197.116 63.5335 201.768 63.1177M194.127 157.698C191.476 153.435 190.28 150.29 189.916 146.522M193.503 157.308C191.424 154.189 189.657 150.056 190.254 146.704M206.083 166.587C197.142 163.806 196.934 161.129 194.257 157.984M205.771 166.976C199.273 165.157 195.375 160.765 193.763 157.516M217.934 164.221C218.064 170.589 210.553 167.938 206.031 167.08M216.947 165.573C216.583 169.394 210.683 167.47 206.161 166.613M210.267 63.7674C214.53 64.0014 217.493 65.6388 217.103 69.3035M210.761 63.6635C214.868 63.1437 217.311 65.4049 217.337 69.2515M201.222 63.3256C206.966 64.2093 206.109 64.1573 210.111 63.9754L201.222 63.3256ZM201.3 63.4556C208.552 63.7934 206.966 63.8454 210.683 63.5335L201.3 63.4556ZM190.02 146.444C190.02 142.337 191.034 139.01 190.67 116.477L190.02 146.444ZM189.916 146.47C189.916 141.116 191.06 137.139 190.488 116.373L189.916 146.47ZM217.259 69.1475C216.609 91.6294 216.635 128.796 216.973 166.249L217.259 69.1475ZM217.181 69.2515C216.635 115.749 216.479 140.908 217.077 166.067L217.181 69.2515Z" stroke="white"/>
<path d="M143.874 79.18C141.613 73.67 141.899 72.7343 141.327 69.7454M143.562 78.5822C141.639 74.1118 140.222 71.7207 140.222 67.2763M159 89.6542C154.062 89.9141 145.277 83.2865 143.718 78.6602M158.403 89.4983C154.842 89.8102 145.199 82.8187 143.718 78.7381M190.371 116.633C187.174 92.5392 173.841 90.0961 158.974 89.6282M189.929 115.853C189.851 96.0219 172.204 89.0564 158.819 89.7842M168.253 63.4816C172.282 63.3257 189.046 68.6798 191.541 72.0325M167.733 63.7155C172.36 63.5596 183.666 65.197 191.385 72.1105M141.301 69.5374C140.781 65.8987 142.418 64.0274 147.227 63.5336M141.275 69.8753C140.989 65.9767 142.99 63.7675 146.811 62.9878M147.123 63.5856C178.052 63.6116 151.515 63.7675 167.733 63.3517L147.123 63.5856ZM147.305 63.4556C164.9 64.1054 144.68 64.1834 167.967 63.6376L147.305 63.4556Z" stroke="white"/>
</svg>
