<?xml version="1.0" encoding="UTF-8"?>
<svg width="215px" height="204px" viewBox="0 0 215 204" version="1.1" xmlns="http://www.w3.org/2000/svg" xmlns:xlink="http://www.w3.org/1999/xlink">
<style>
svg .remirror-r {
  animation-duration: 20s;
  animation-direction: alternate;
  animation-name: r-color-change;
  animation-iteration-count: infinite;
}

svg .remirror-r-reverse {
  animation-duration: 20s;
  animation-direction: alternate;
  animation-name: r-reverse-color-change;
  animation-iteration-count: infinite;
}

svg .remirror-rectangle {
  animation-duration: 20s;
  animation-direction: alternate;
  animation-name: logo-background;
  animation-iteration-count: infinite;
}

@keyframes r-color-change {
  from {
    fill: #37393A;
  }

  to {
   fill: #77B6EA;
  }
}

@keyframes r-reverse-color-change {
  from {
    fill: #77B6EA;
  }

  to {
   fill: #FA824C;
  }
}

</style>
    <!-- Generator: Sketch 52.6 (67491) - http://www.bohemiancoding.com/sketch -->
    <title>Group</title>
    <desc>Created with Sketch.</desc>
    <defs>
        <path class="bounce" d="M22.4804688,186.978338 C21.8554656,186.405419 21.1230511,185.975735 20.2832031,185.689276 C19.4433552,185.402816 18.5221404,185.259588 17.5195312,185.259588 C16.3085877,185.259588 15.2506556,185.471174 14.3457031,185.894354 C13.4407507,186.317533 12.7408879,186.932761 12.2460938,187.740057 C11.9335922,188.234851 11.7154954,188.833803 11.5917969,189.536932 C11.4680983,190.24006 11.40625,191.307758 11.40625,192.740057 L11.40625,202.818182 L5.68359375,202.818182 L5.68359375,180.943182 L11.40625,180.943182 L11.40625,184.341619 C11.9661486,183.091613 12.825515,182.124826 13.984375,181.441229 C15.143235,180.757632 16.4973881,180.415838 18.046875,180.415838 C18.8281289,180.415838 19.5930952,180.510238 20.3417969,180.699041 C21.0904985,180.887844 21.803382,181.164534 22.4804688,181.529119 L22.4804688,186.978338 Z M48.9254687,201.743963 C47.597337,202.290841 46.2431839,202.700993 44.8629687,202.974432 C43.4827534,203.247871 42.0244347,203.384588 40.4879687,203.384588 C36.8290962,203.384588 34.0329002,202.40478 32.0992968,200.445135 C30.1656934,198.48549 29.1989062,195.663252 29.1989062,191.978338 C29.1989062,188.410612 30.1298865,185.59163 31.9918749,183.521307 C33.8538634,181.450984 36.3929005,180.415838 39.6090624,180.415838 C42.8512661,180.415838 45.367517,181.376115 47.1578906,183.296697 C48.9482641,185.21728 49.8434374,187.922331 49.8434374,191.411932 L49.8434374,193.736151 L35.0192187,193.736151 C35.0322396,195.454909 35.540047,196.737448 36.5426562,197.583807 C37.5452654,198.430165 39.0426462,198.853338 41.0348437,198.853338 C42.3499544,198.853338 43.6455144,198.664538 44.9215624,198.286932 C46.1976105,197.909326 47.5322326,197.310373 48.9254687,196.490057 L48.9254687,201.743963 Z M44.0817187,189.439276 C44.0556769,187.928851 43.668311,186.786285 42.9196093,186.011541 C42.1709076,185.236798 41.0674031,184.849432 39.6090624,184.849432 C38.2939517,184.849432 37.2457851,185.249818 36.4645312,186.050604 C35.6832773,186.851389 35.2210423,187.987445 35.0778124,189.458807 L44.0817187,189.439276 Z M68.2806249,183.130682 C68.7103145,182.206198 69.257184,181.522611 69.9212499,181.079901 C70.5853157,180.63719 71.3991096,180.415838 72.3626561,180.415838 C74.2506864,180.415838 75.5560119,181.066873 76.2786717,182.368963 C77.0013316,183.671053 77.3626561,186.379359 77.3626561,190.493963 L77.3626561,202.818182 L72.6751561,202.818182 L72.6751561,188.775213 C72.6751561,187.147601 72.5514594,186.060372 72.3040624,185.513494 C72.0566653,184.966617 71.607451,184.693182 70.9564061,184.693182 C70.3053612,184.693182 69.8496366,184.973127 69.5892186,185.533026 C69.3288006,186.092924 69.1985936,187.173643 69.1985936,188.775213 L69.1985936,202.818182 L64.5696874,202.818182 L64.5696874,188.775213 C64.5696874,187.173643 64.4394803,186.092924 64.1790624,185.533026 C63.9186444,184.973127 63.4629198,184.693182 62.8118749,184.693182 C62.1608299,184.693182 61.7116157,184.966617 61.4642186,185.513494 C61.2168215,186.060372 61.0931249,187.147601 61.0931249,188.775213 L61.0931249,202.818182 L56.4056249,202.818182 L56.4056249,180.943182 L60.5657811,180.943182 L60.5657811,183.208807 C60.8913036,182.349428 61.4121317,181.669096 62.1282811,181.167791 C62.8444305,180.666487 63.6452038,180.415838 64.5306249,180.415838 C65.416046,180.415838 66.2233296,180.679507 66.9524999,181.206854 C67.6816702,181.7342 68.1243741,182.37547 68.2806249,183.130682 Z M86.5224998,180.943182 L97.8506248,180.943182 L97.8506248,198.423651 L104.96,198.423651 L104.96,202.818182 L84.9990623,202.818182 L84.9990623,198.423651 L92.1279685,198.423651 L92.1279685,185.337713 L86.5224998,185.337713 L86.5224998,180.943182 Z M92.1279685,170.298651 L97.8506248,170.298651 L97.8506248,176.978338 L92.1279685,176.978338 L92.1279685,170.298651 Z M132.088593,186.978338 C131.46359,186.405419 130.731176,185.975735 129.891328,185.689276 C129.05148,185.402816 128.130265,185.259588 127.127656,185.259588 C125.916712,185.259588 124.85878,185.471174 123.953828,185.894354 C123.048875,186.317533 122.349013,186.932761 121.854218,187.740057 C121.541717,188.234851 121.32362,188.833803 121.199922,189.536932 C121.076223,190.24006 121.014375,191.307758 121.014375,192.740057 L121.014375,202.818182 L115.291718,202.818182 L115.291718,180.943182 L121.014375,180.943182 L121.014375,184.341619 C121.574273,183.091613 122.43364,182.124826 123.5925,181.441229 C124.75136,180.757632 126.105513,180.415838 127.655,180.415838 C128.436254,180.415838 129.20122,180.510238 129.949922,180.699041 C130.698623,180.887844 131.411507,181.164534 132.088593,181.529119 L132.088593,186.978338 Z M159.490625,186.978338 C158.865622,186.405419 158.133207,185.975735 157.293359,185.689276 C156.453511,185.402816 155.532296,185.259588 154.529687,185.259588 C153.318744,185.259588 152.260811,185.471174 151.355859,185.894354 C150.450907,186.317533 149.751044,186.932761 149.25625,187.740057 C148.943748,188.234851 148.725651,188.833803 148.601953,189.536932 C148.478254,190.24006 148.416406,191.307758 148.416406,192.740057 L148.416406,202.818182 L142.69375,202.818182 L142.69375,180.943182 L148.416406,180.943182 L148.416406,184.341619 C148.976305,183.091613 149.835671,182.124826 150.994531,181.441229 C152.153391,180.757632 153.507544,180.415838 155.057031,180.415838 C155.838285,180.415838 156.603251,180.510238 157.351953,180.699041 C158.100654,180.887844 158.813538,181.164534 159.490625,181.529119 L159.490625,186.978338 Z M176.443437,185.064276 C175.076243,185.064276 174.002035,185.666483 173.220781,186.870916 C172.439527,188.075349 172.048906,189.751765 172.048906,191.900213 C172.048906,194.048661 172.439527,195.725077 173.220781,196.92951 C174.002035,198.133943 175.076243,198.736151 176.443437,198.736151 C177.823652,198.736151 178.904371,198.133943 179.685625,196.92951 C180.466879,195.725077 180.8575,194.048661 180.8575,191.900213 C180.8575,189.751765 180.466879,188.075349 179.685625,186.870916 C178.904371,185.666483 177.823652,185.064276 176.443437,185.064276 Z M166.32625,191.900213 C166.32625,188.37155 167.240954,185.575354 169.07039,183.511541 C170.899826,181.447729 173.357484,180.415838 176.443437,180.415838 C179.542411,180.415838 182.006579,181.447729 183.836015,183.511541 C185.665451,185.575354 186.580156,188.37155 186.580156,191.900213 C186.580156,195.428877 185.665451,198.225073 183.836015,200.288885 C182.006579,202.352697 179.542411,203.384588 176.443437,203.384588 C173.357484,203.384588 170.899826,202.352697 169.07039,200.288885 C167.240954,198.225073 166.32625,195.428877 166.32625,191.900213 Z M214.294687,186.978338 C213.669684,186.405419 212.937269,185.975735 212.097421,185.689276 C211.257573,185.402816 210.336359,185.259588 209.33375,185.259588 C208.122806,185.259588 207.064874,185.471174 206.159921,185.894354 C205.254969,186.317533 204.555106,186.932761 204.060312,187.740057 C203.74781,188.234851 203.529714,188.833803 203.406015,189.536932 C203.282317,190.24006 203.220468,191.307758 203.220468,192.740057 L203.220468,202.818182 L197.497812,202.818182 L197.497812,180.943182 L203.220468,180.943182 L203.220468,184.341619 C203.780367,183.091613 204.639733,182.124826 205.798593,181.441229 C206.957453,180.757632 208.311606,180.415838 209.861093,180.415838 C210.642347,180.415838 211.407313,180.510238 212.156015,180.699041 C212.904717,180.887844 213.6176,181.164534 214.294687,181.529119 L214.294687,186.978338 Z" id="path-1"></path>
    </defs>
    <g id="Logo" stroke="none" stroke-width="1" fill="none" fill-rule="evenodd">
        <g id="Group" transform="translate(-1.000000, 0.000000)">
            <rect id="Rectangle" fill-rule="nonzero" x="1" y="0" width="216" height="216" class="remirror-rectangle"></rect>
            <path d="M104.984375,60.3575533 C101.11517,56.8977496 96.5810126,54.3029358 91.3817678,52.5730339 C86.1825231,50.8431321 80.4795611,49.9781941 74.2727108,49.9781941 C66.7761253,49.9781941 60.2267873,51.2559433 54.6245004,53.8114802 C49.0222134,56.367017 44.6895744,60.0823186 41.6264535,64.9574966 C39.6918508,67.9455089 38.3416796,71.5625221 37.5758993,75.8086448 C36.8101191,80.0547676 36.4272347,86.5024868 36.4272347,95.1519961 L36.4272347,156.012784 L1,156.012784 L1,23.9118488 L36.4272347,23.9118488 L36.4272347,44.4346727 C39.8933979,36.8860101 45.2134755,31.0476789 52.3876272,26.9195041 C59.5617788,22.7913292 67.9449314,20.7272727 77.5373365,20.7272727 C82.3738432,20.7272727 87.1095184,21.2973455 91.744504,22.437508 C96.3794896,23.5776706 100.792736,25.2485735 104.984375,27.4502668 L104.984375,60.3575533 Z" id="r" fill="#37393A" class="remirror-r"></path>
            <path d="M215.984375,60.3575533 C212.11517,56.8977496 207.581013,54.3029358 202.381768,52.5730339 C197.182523,50.8431321 191.479561,49.9781941 185.272711,49.9781941 C177.776125,49.9781941 171.226787,51.2559433 165.6245,53.8114802 C160.022213,56.367017 155.689574,60.0823186 152.626453,64.9574966 C150.691851,67.9455089 149.34168,71.5625221 148.575899,75.8086448 C147.810119,80.0547676 147.427235,86.5024868 147.427235,95.1519961 L147.427235,156.012784 L112,156.012784 L112,23.9118488 L147.427235,23.9118488 L147.427235,44.4346727 C150.893398,36.8860101 156.213476,31.0476789 163.387627,26.9195041 C170.561779,22.7913292 178.944931,20.7272727 188.537336,20.7272727 C193.373843,20.7272727 198.109518,21.2973455 202.744504,22.437508 C207.37949,23.5776706 211.792736,25.2485735 215.984375,27.4502668 L215.984375,60.3575533 Z" id="r" fill="#77B6EA" class="remirror-r-reverse" transform="translate(163.992188, 88.370028) scale(-1, 1) translate(-163.992188, -88.370028) "></path>
            <rect id="Rectangle" fill="#C7D3DD" fill-rule="nonzero" x="104" y="0" width="8" height="156"></rect>
            <g id="remirror">
                <use fill="#A9AEB1" xlink:href="#path-1" class="bounce"></use>
                <!-- <use fill="#D3D9DC" xlink:href="#path-1"></use> -->
            </g>
        </g>
    </g>
</svg>
