<svg xmlns="http://www.w3.org/2000/svg" width="1024" height="1024" viewBox="0 0 1024 1024">
  <g fill="none" fill-rule="evenodd">
    <rect width="1024" height="1024" fill="#7963D2" fill-rule="nonzero" rx="90"/>
    <g transform="translate(17 90)">
      <rect width="488" height="843" fill="#FFF" fill-rule="nonzero" opacity=".15"/>
      <rect width="488" height="843" x="502" opacity=".5"/>
      <rect width="13" height="843" x="489" fill="#FFF" fill-rule="nonzero"/>
      <path fill="#FFF" fill-rule="nonzero" d="M636.45502 228.414115C676.811779 227.882026 716.492841 238.328573 750.855822 258.531588 760.907187 240.044158 780.906097 228.433201 802.730668 228.414115L855 228.414115 855 635C819.785592 635 792.526642 625.789073 773.223151 607.367219 754.451622 590.149574 743.972535 566.29284 744.267913 541.4476L744.267913 433.928221C744.604461 406.388055 733.215967 379.896443 712.709071 360.516881 692.968937 340.453858 665.290313 329.248546 636.45502 329.646471 611.572191 329.950275 587.667577 320.410859 570.418143 303.293682 552.008818 285.725156 542.869904 260.627262 543 228L636.45502 228.414115zM353.497692 228.414115C313.120511 227.882026 273.41937 238.328573 239.039002 258.531588 228.982551 240.044158 208.973521 228.433201 187.137907 228.414115L135 228.414115 135 635C170.232227 635 197.504969 625.789073 216.818229 607.367219 235.599256 590.149574 246.083645 566.29284 245.788118 541.4476L245.788118 433.928221C245.4514 406.388055 256.845657 379.896443 277.362929 360.516881 297.075807 340.492839 324.702489 329.291031 353.497692 329.646471 378.393111 329.950275 402.309821 320.410859 419.567983 303.293682 437.986623 285.725156 447.130162 260.627262 447 228L353.497692 228.414115z"/>
    </g>
  </g>
</svg>
