<?xml version="1.0" encoding="UTF-8"?>
<svg width="215px" height="157px" viewBox="0 0 215 157" version="1.1" xmlns="http://www.w3.org/2000/svg" xmlns:xlink="http://www.w3.org/1999/xlink">
    <!-- Generator: Sketch 52.6 (67491) - http://www.bohemiancoding.com/sketch -->
    <title>Group 2</title>
    <desc>Created with Sketch.</desc>
    <g id="Logo" stroke="none" stroke-width="1" fill="none" fill-rule="evenodd">
        <g id="Group-2">
            <path d="M103.984375,60.3575533 C100.11517,56.8977496 95.5810126,54.3029358 90.3817678,52.5730339 C85.1825231,50.8431321 79.4795611,49.9781941 73.2727108,49.9781941 C65.7761253,49.9781941 59.2267873,51.2559433 53.6245004,53.8114802 C48.0222134,56.367017 43.6895744,60.0823186 40.6264535,64.9574966 C38.6918508,67.9455089 37.3416796,71.5625221 36.5758993,75.8086448 C35.8101191,80.0547676 35.4272347,86.5024868 35.4272347,95.1519961 L35.4272347,156.012784 L0,156.012784 L0,23.9118488 L35.4272347,23.9118488 L35.4272347,44.4346727 C38.8933979,36.8860101 44.2134755,31.0476789 51.3876272,26.9195041 C58.5617788,22.7913292 66.9449314,20.7272727 76.5373365,20.7272727 C81.3738432,20.7272727 86.1095184,21.2973455 90.744504,22.437508 C95.3794896,23.5776706 99.7927358,25.2485735 103.984375,27.4502668 L103.984375,60.3575533 Z" id="r" fill="#37393A"></path>
            <path d="M214.984375,60.3575533 C211.11517,56.8977496 206.581013,54.3029358 201.381768,52.5730339 C196.182523,50.8431321 190.479561,49.9781941 184.272711,49.9781941 C176.776125,49.9781941 170.226787,51.2559433 164.6245,53.8114802 C159.022213,56.367017 154.689574,60.0823186 151.626453,64.9574966 C149.691851,67.9455089 148.34168,71.5625221 147.575899,75.8086448 C146.810119,80.0547676 146.427235,86.5024868 146.427235,95.1519961 L146.427235,156.012784 L111,156.012784 L111,23.9118488 L146.427235,23.9118488 L146.427235,44.4346727 C149.893398,36.8860101 155.213476,31.0476789 162.387627,26.9195041 C169.561779,22.7913292 177.944931,20.7272727 187.537336,20.7272727 C192.373843,20.7272727 197.109518,21.2973455 201.744504,22.437508 C206.37949,23.5776706 210.792736,25.2485735 214.984375,27.4502668 L214.984375,60.3575533 Z" id="r" fill="#77B6EA" transform="translate(162.992188, 88.370028) scale(-1, 1) translate(-162.992188, -88.370028) "></path>
            <rect id="Rectangle" fill="#C7D3DD" fill-rule="nonzero" x="103" y="0" width="8" height="156"></rect>
        </g>
    </g>
</svg>